<svg width="255" height="80" viewBox="0 0 255 80" fill="none" xmlns="http://www.w3.org/2000/svg">
<path d="M40 0.25H215C236.953 0.25 254.75 18.0467 254.75 40C254.75 61.9533 236.953 79.75 215 79.75H40C18.0467 79.75 0.25 61.9533 0.25 40C0.25 18.0467 18.0467 0.25 40 0.25Z" fill="#FAFAFA" stroke="#ECECEC" stroke-width="0.5"/>
<g clip-path="url(#clip0_3_37)">
<path d="M38.9954 22.4989L69.3014 22.4989C66.2304 17.178 61.8127 12.7595 56.4923 9.68751C51.172 6.61555 45.1366 4.99849 38.9931 4.99892C32.8496 4.99935 26.8145 6.61726 21.4946 9.68996C16.1747 12.7627 11.7575 17.1818 8.68729 22.5032L23.8403 48.7489L23.8538 48.7454C22.3123 46.0872 21.4989 43.0697 21.4954 39.9969C21.492 36.9242 22.2986 33.9048 23.8341 31.2432C25.3696 28.5816 27.5796 26.3718 30.2414 24.8366C32.9032 23.3014 35.9227 22.4951 38.9954 22.4989V22.4989Z" fill="url(#paint0_linear_3_37)"/>
<path d="M54.1587 48.7466L39.0057 74.9923C45.1492 74.9932 51.1846 73.3766 56.5052 70.305C61.8258 67.2335 66.2439 62.8152 69.3152 57.4946C72.3866 52.1739 74.003 46.1384 74.002 39.9949C74.0009 33.8514 72.3823 27.8164 69.309 22.4968L39.0031 22.4969L38.9994 22.5103C42.0721 22.5044 45.0921 23.3087 47.7549 24.8421C50.4178 26.3755 52.6293 28.5838 54.1665 31.2444C55.7038 33.9049 56.5125 36.9238 56.5112 39.9965C56.5098 43.0693 55.6984 46.0874 54.1587 48.7466V48.7466Z" fill="url(#paint1_linear_3_37)"/>
<path d="M23.8459 48.7545L8.69291 22.5088C5.62038 27.8288 4.00267 33.8639 4.00244 40.0074C4.00221 46.151 5.61947 52.1863 8.6916 57.5065C11.7637 62.8267 16.1824 67.2443 21.5034 70.3152C26.8244 73.386 32.8601 75.0017 39.0036 75L54.1566 48.7542L54.1468 48.7443C52.6155 51.4083 50.409 53.6216 47.7496 55.161C45.0903 56.7003 42.0721 57.5114 38.9993 57.5124C35.9265 57.5135 32.9078 56.7044 30.2474 55.1669C27.587 53.6293 25.379 51.4175 23.8459 48.7545V48.7545Z" fill="url(#paint2_linear_3_37)"/>
<path d="M39 57.5C48.665 57.5 56.5 49.665 56.5 40C56.5 30.335 48.665 22.5 39 22.5C29.335 22.5 21.5 30.335 21.5 40C21.5 49.665 29.335 57.5 39 57.5Z" fill="white"/>
<path d="M39 53.8542C46.6515 53.8542 52.8542 47.6514 52.8542 40C52.8542 32.3486 46.6515 26.1458 39 26.1458C31.3486 26.1458 25.1458 32.3486 25.1458 40C25.1458 47.6514 31.3486 53.8542 39 53.8542Z" fill="#1A73E8"/>
</g>
<path d="M87.8135 34.2661L82.9795 49H79.0854L85.6895 31.2266H88.1675L87.8135 34.2661ZM91.8296 49L86.9834 34.2661L86.5928 31.2266H89.0952L95.7358 49H91.8296ZM91.6099 42.3838V45.2524H82.2227V42.3838H91.6099ZM104.964 46.1191V30.25H108.504V49H105.318L104.964 46.1191ZM96.6147 42.5547V42.2983C96.6147 41.2892 96.7287 40.3737 96.9565 39.5518C97.1844 38.7217 97.5181 38.0096 97.9575 37.4155C98.397 36.8215 98.9382 36.3617 99.5811 36.0361C100.224 35.7106 100.956 35.5479 101.778 35.5479C102.551 35.5479 103.227 35.7106 103.805 36.0361C104.391 36.3617 104.887 36.8255 105.294 37.4277C105.709 38.0218 106.043 38.7257 106.295 39.5396C106.547 40.3452 106.73 41.2282 106.844 42.1885V42.75C106.73 43.6696 106.547 44.5241 106.295 45.3135C106.043 46.1029 105.709 46.7946 105.294 47.3887C104.887 47.9746 104.391 48.4303 103.805 48.7559C103.219 49.0814 102.535 49.2441 101.754 49.2441C100.932 49.2441 100.2 49.0773 99.5566 48.7437C98.9219 48.41 98.3848 47.9421 97.9453 47.3398C97.514 46.7376 97.1844 46.0296 96.9565 45.2158C96.7287 44.402 96.6147 43.515 96.6147 42.5547ZM100.13 42.2983V42.5547C100.13 43.0999 100.171 43.6086 100.252 44.0806C100.342 44.5526 100.484 44.9717 100.68 45.3379C100.883 45.696 101.144 45.9767 101.461 46.1802C101.786 46.3755 102.181 46.4731 102.645 46.4731C103.247 46.4731 103.744 46.3389 104.134 46.0703C104.525 45.7936 104.822 45.4152 105.025 44.9351C105.237 44.4549 105.359 43.9015 105.392 43.2749V41.6758C105.367 41.1631 105.294 40.7033 105.172 40.2964C105.058 39.8813 104.887 39.5273 104.659 39.2344C104.439 38.9414 104.163 38.7135 103.829 38.5508C103.504 38.388 103.117 38.3066 102.669 38.3066C102.214 38.3066 101.823 38.4124 101.498 38.624C101.172 38.8275 100.908 39.1082 100.704 39.4663C100.509 39.8244 100.362 40.2476 100.265 40.7358C100.175 41.216 100.13 41.7368 100.13 42.2983ZM119.051 46.1191V30.25H122.591V49H119.405L119.051 46.1191ZM110.702 42.5547V42.2983C110.702 41.2892 110.816 40.3737 111.043 39.5518C111.271 38.7217 111.605 38.0096 112.044 37.4155C112.484 36.8215 113.025 36.3617 113.668 36.0361C114.311 35.7106 115.043 35.5479 115.865 35.5479C116.638 35.5479 117.314 35.7106 117.892 36.0361C118.478 36.3617 118.974 36.8255 119.381 37.4277C119.796 38.0218 120.13 38.7257 120.382 39.5396C120.634 40.3452 120.817 41.2282 120.931 42.1885V42.75C120.817 43.6696 120.634 44.5241 120.382 45.3135C120.13 46.1029 119.796 46.7946 119.381 47.3887C118.974 47.9746 118.478 48.4303 117.892 48.7559C117.306 49.0814 116.622 49.2441 115.841 49.2441C115.019 49.2441 114.286 49.0773 113.644 48.7437C113.009 48.41 112.472 47.9421 112.032 47.3398C111.601 46.7376 111.271 46.0296 111.043 45.2158C110.816 44.402 110.702 43.515 110.702 42.5547ZM114.217 42.2983V42.5547C114.217 43.0999 114.258 43.6086 114.339 44.0806C114.429 44.5526 114.571 44.9717 114.767 45.3379C114.97 45.696 115.23 45.9767 115.548 46.1802C115.873 46.3755 116.268 46.4731 116.732 46.4731C117.334 46.4731 117.831 46.3389 118.221 46.0703C118.612 45.7936 118.909 45.4152 119.112 44.9351C119.324 44.4549 119.446 43.9015 119.479 43.2749V41.6758C119.454 41.1631 119.381 40.7033 119.259 40.2964C119.145 39.8813 118.974 39.5273 118.746 39.2344C118.526 38.9414 118.25 38.7135 117.916 38.5508C117.59 38.388 117.204 38.3066 116.756 38.3066C116.301 38.3066 115.91 38.4124 115.584 38.624C115.259 38.8275 114.994 39.1082 114.791 39.4663C114.596 39.8244 114.449 40.2476 114.352 40.7358C114.262 41.216 114.217 41.7368 114.217 42.2983ZM138.033 35.792V38.2822H130.343V35.792H138.033ZM132.247 32.5327H135.763V45.0205C135.763 45.403 135.812 45.696 135.909 45.8994C136.015 46.1029 136.17 46.2453 136.373 46.3267C136.576 46.3999 136.833 46.4365 137.142 46.4365C137.362 46.4365 137.557 46.4284 137.728 46.4121C137.907 46.3877 138.058 46.3633 138.18 46.3389L138.192 48.9268C137.891 49.0244 137.565 49.1017 137.215 49.1587C136.865 49.2157 136.479 49.2441 136.056 49.2441C135.283 49.2441 134.607 49.118 134.029 48.8657C133.46 48.6053 133.02 48.1903 132.711 47.6206C132.402 47.0509 132.247 46.3022 132.247 45.3745V32.5327ZM139.156 42.5303V42.2739C139.156 41.3055 139.295 40.4144 139.571 39.6006C139.848 38.7786 140.251 38.0666 140.78 37.4644C141.309 36.8621 141.96 36.3942 142.733 36.0605C143.506 35.7188 144.393 35.5479 145.394 35.5479C146.395 35.5479 147.286 35.7188 148.067 36.0605C148.849 36.3942 149.504 36.8621 150.033 37.4644C150.57 38.0666 150.977 38.7786 151.253 39.6006C151.53 40.4144 151.668 41.3055 151.668 42.2739V42.5303C151.668 43.4906 151.53 44.3817 151.253 45.2036C150.977 46.0174 150.57 46.7295 150.033 47.3398C149.504 47.9421 148.853 48.41 148.08 48.7437C147.306 49.0773 146.419 49.2441 145.418 49.2441C144.417 49.2441 143.526 49.0773 142.745 48.7437C141.972 48.41 141.317 47.9421 140.78 47.3398C140.251 46.7295 139.848 46.0174 139.571 45.2036C139.295 44.3817 139.156 43.4906 139.156 42.5303ZM142.672 42.2739V42.5303C142.672 43.0837 142.721 43.6004 142.818 44.0806C142.916 44.5607 143.071 44.9839 143.282 45.3501C143.502 45.7082 143.787 45.9889 144.137 46.1924C144.487 46.3958 144.914 46.4976 145.418 46.4976C145.907 46.4976 146.326 46.3958 146.676 46.1924C147.026 45.9889 147.306 45.7082 147.518 45.3501C147.73 44.9839 147.884 44.5607 147.982 44.0806C148.088 43.6004 148.141 43.0837 148.141 42.5303V42.2739C148.141 41.7368 148.088 41.2323 147.982 40.7603C147.884 40.2801 147.726 39.8569 147.506 39.4907C147.294 39.1164 147.014 38.8234 146.664 38.6118C146.314 38.4002 145.89 38.2944 145.394 38.2944C144.898 38.2944 144.474 38.4002 144.125 38.6118C143.783 38.8234 143.502 39.1164 143.282 39.4907C143.071 39.8569 142.916 40.2801 142.818 40.7603C142.721 41.2323 142.672 41.7368 142.672 42.2739ZM170.577 43.104H174.227C174.154 44.3003 173.824 45.3623 173.238 46.29C172.66 47.2178 171.851 47.9421 170.809 48.4629C169.776 48.9837 168.53 49.2441 167.074 49.2441C165.934 49.2441 164.913 49.0488 164.01 48.6582C163.106 48.2594 162.333 47.6898 161.69 46.9492C161.056 46.2087 160.571 45.3135 160.238 44.2637C159.904 43.2139 159.737 42.0379 159.737 40.7358V39.5029C159.737 38.2008 159.908 37.0249 160.25 35.9751C160.6 34.9172 161.096 34.0179 161.739 33.2773C162.39 32.5368 163.167 31.9671 164.071 31.5684C164.974 31.1696 165.983 30.9702 167.098 30.9702C168.579 30.9702 169.828 31.2388 170.846 31.7759C171.871 32.313 172.665 33.0535 173.226 33.9976C173.796 34.9416 174.138 36.0158 174.251 37.2202H170.589C170.549 36.5041 170.406 35.8978 170.162 35.4014C169.918 34.8968 169.548 34.5184 169.051 34.2661C168.563 34.0057 167.912 33.8755 167.098 33.8755C166.488 33.8755 165.955 33.9894 165.499 34.2173C165.043 34.4451 164.661 34.791 164.352 35.2549C164.042 35.7188 163.81 36.3047 163.656 37.0127C163.509 37.7126 163.436 38.5345 163.436 39.4785V40.7358C163.436 41.6554 163.505 42.4652 163.644 43.165C163.782 43.8568 163.993 44.4427 164.278 44.9229C164.571 45.3949 164.946 45.7529 165.401 45.9971C165.865 46.2331 166.423 46.3511 167.074 46.3511C167.839 46.3511 168.469 46.229 168.966 45.9849C169.462 45.7407 169.841 45.3786 170.101 44.8984C170.37 44.4183 170.528 43.8201 170.577 43.104ZM179.842 30.25V49H176.327V30.25H179.842ZM179.342 41.9321H178.377C178.386 41.0125 178.508 40.1662 178.744 39.3931C178.98 38.6118 179.317 37.9364 179.757 37.3667C180.196 36.7889 180.721 36.3413 181.332 36.0239C181.95 35.7065 182.634 35.5479 183.382 35.5479C184.033 35.5479 184.623 35.6414 185.152 35.8286C185.689 36.0076 186.149 36.3006 186.532 36.7075C186.922 37.1063 187.223 37.6312 187.435 38.2822C187.647 38.9333 187.752 39.7227 187.752 40.6504V49H184.212V40.626C184.212 40.04 184.127 39.5802 183.956 39.2466C183.793 38.9048 183.553 38.6647 183.236 38.5264C182.927 38.3799 182.544 38.3066 182.088 38.3066C181.584 38.3066 181.153 38.4002 180.794 38.5874C180.444 38.7746 180.164 39.035 179.952 39.3687C179.741 39.6942 179.586 40.0767 179.488 40.5161C179.391 40.9556 179.342 41.4276 179.342 41.9321ZM193.941 38.6729V49H190.426V35.792H193.734L193.941 38.6729ZM197.921 35.7065L197.86 38.9658C197.689 38.9414 197.481 38.9211 197.237 38.9048C197.001 38.8804 196.786 38.8682 196.59 38.8682C196.094 38.8682 195.663 38.9333 195.296 39.0635C194.938 39.1855 194.637 39.3687 194.393 39.6128C194.157 39.8569 193.978 40.154 193.856 40.5039C193.742 40.8538 193.677 41.2526 193.661 41.7002L192.953 41.4805C192.953 40.626 193.038 39.8407 193.209 39.1245C193.38 38.4002 193.628 37.7695 193.954 37.2324C194.287 36.6953 194.694 36.2803 195.174 35.9873C195.654 35.6943 196.204 35.5479 196.822 35.5479C197.018 35.5479 197.217 35.5641 197.42 35.5967C197.624 35.6211 197.791 35.6577 197.921 35.7065ZM198.653 42.5303V42.2739C198.653 41.3055 198.792 40.4144 199.068 39.6006C199.345 38.7786 199.748 38.0666 200.277 37.4644C200.806 36.8621 201.457 36.3942 202.23 36.0605C203.003 35.7188 203.89 35.5479 204.891 35.5479C205.892 35.5479 206.783 35.7188 207.564 36.0605C208.346 36.3942 209.001 36.8621 209.53 37.4644C210.067 38.0666 210.474 38.7786 210.75 39.6006C211.027 40.4144 211.166 41.3055 211.166 42.2739V42.5303C211.166 43.4906 211.027 44.3817 210.75 45.2036C210.474 46.0174 210.067 46.7295 209.53 47.3398C209.001 47.9421 208.35 48.41 207.577 48.7437C206.804 49.0773 205.917 49.2441 204.916 49.2441C203.915 49.2441 203.023 49.0773 202.242 48.7437C201.469 48.41 200.814 47.9421 200.277 47.3398C199.748 46.7295 199.345 46.0174 199.068 45.2036C198.792 44.3817 198.653 43.4906 198.653 42.5303ZM202.169 42.2739V42.5303C202.169 43.0837 202.218 43.6004 202.315 44.0806C202.413 44.5607 202.568 44.9839 202.779 45.3501C202.999 45.7082 203.284 45.9889 203.634 46.1924C203.984 46.3958 204.411 46.4976 204.916 46.4976C205.404 46.4976 205.823 46.3958 206.173 46.1924C206.523 45.9889 206.804 45.7082 207.015 45.3501C207.227 44.9839 207.381 44.5607 207.479 44.0806C207.585 43.6004 207.638 43.0837 207.638 42.5303V42.2739C207.638 41.7368 207.585 41.2323 207.479 40.7603C207.381 40.2801 207.223 39.8569 207.003 39.4907C206.791 39.1164 206.511 38.8234 206.161 38.6118C205.811 38.4002 205.388 38.2944 204.891 38.2944C204.395 38.2944 203.972 38.4002 203.622 38.6118C203.28 38.8234 202.999 39.1164 202.779 39.4907C202.568 39.8569 202.413 40.2801 202.315 40.7603C202.218 41.2323 202.169 41.7368 202.169 42.2739ZM216.842 38.5264V49H213.314V35.792H216.622L216.842 38.5264ZM216.354 41.9321H215.377C215.377 41.0125 215.487 40.1662 215.707 39.3931C215.934 38.6118 216.264 37.9364 216.695 37.3667C217.135 36.7889 217.676 36.3413 218.319 36.0239C218.962 35.7065 219.706 35.5479 220.553 35.5479C221.139 35.5479 221.676 35.6374 222.164 35.8164C222.652 35.9873 223.071 36.2599 223.421 36.6343C223.779 37.0005 224.056 37.4806 224.251 38.0747C224.447 38.6606 224.544 39.3646 224.544 40.1865V49H221.029V40.5771C221.029 39.9749 220.947 39.5111 220.785 39.1855C220.622 38.86 220.39 38.6322 220.089 38.502C219.796 38.3717 219.442 38.3066 219.027 38.3066C218.571 38.3066 218.172 38.4002 217.831 38.5874C217.497 38.7746 217.22 39.035 217 39.3687C216.781 39.6942 216.618 40.0767 216.512 40.5161C216.406 40.9556 216.354 41.4276 216.354 41.9321ZM224.215 41.5293L222.958 41.688C222.958 40.8254 223.063 40.0238 223.275 39.2832C223.495 38.5426 223.816 37.8916 224.239 37.3301C224.671 36.7686 225.204 36.3332 225.838 36.0239C226.473 35.7065 227.206 35.5479 228.036 35.5479C228.67 35.5479 229.248 35.6414 229.769 35.8286C230.29 36.0076 230.733 36.2965 231.1 36.6953C231.474 37.0859 231.759 37.5986 231.954 38.2334C232.158 38.8682 232.259 39.6453 232.259 40.5649V49H228.731V40.5649C228.731 39.9546 228.65 39.4907 228.487 39.1733C228.333 38.8478 228.105 38.624 227.804 38.502C227.511 38.3717 227.161 38.3066 226.754 38.3066C226.331 38.3066 225.96 38.3921 225.643 38.563C225.326 38.7257 225.061 38.9536 224.85 39.2466C224.638 39.5396 224.479 39.8813 224.374 40.272C224.268 40.6545 224.215 41.0736 224.215 41.5293ZM241.061 49.2441C240.035 49.2441 239.116 49.0814 238.302 48.7559C237.488 48.4222 236.796 47.9624 236.227 47.3765C235.665 46.7905 235.234 46.111 234.933 45.3379C234.632 44.5566 234.481 43.7266 234.481 42.8477V42.3594C234.481 41.3584 234.623 40.4429 234.908 39.6128C235.193 38.7827 235.6 38.0625 236.129 37.4521C236.666 36.8418 237.317 36.3739 238.082 36.0483C238.847 35.7147 239.71 35.5479 240.67 35.5479C241.606 35.5479 242.436 35.7025 243.16 36.0117C243.884 36.321 244.491 36.7604 244.979 37.3301C245.475 37.8997 245.85 38.5833 246.102 39.3809C246.354 40.1702 246.48 41.0492 246.48 42.0176V43.4824H235.982V41.1387H243.026V40.8701C243.026 40.3818 242.936 39.9465 242.757 39.564C242.586 39.1733 242.326 38.8641 241.976 38.6362C241.626 38.4084 241.179 38.2944 240.633 38.2944C240.169 38.2944 239.771 38.3962 239.437 38.5996C239.103 38.8031 238.831 39.0879 238.619 39.4541C238.416 39.8203 238.261 40.2516 238.155 40.748C238.058 41.2363 238.009 41.7734 238.009 42.3594V42.8477C238.009 43.3766 238.082 43.8649 238.229 44.3125C238.383 44.7601 238.599 45.1466 238.875 45.4722C239.16 45.7977 239.502 46.05 239.901 46.229C240.308 46.408 240.768 46.4976 241.28 46.4976C241.915 46.4976 242.505 46.3755 243.05 46.1313C243.604 45.8791 244.08 45.5007 244.479 44.9961L246.188 46.8516C245.911 47.2503 245.532 47.6328 245.052 47.999C244.58 48.3652 244.011 48.6663 243.343 48.9023C242.676 49.1302 241.915 49.2441 241.061 49.2441Z" fill="#1E1E1E"/>
<defs>
<linearGradient id="paint0_linear_3_37" x1="65.5206" y1="20.3149" x2="35.2136" y2="72.8082" gradientUnits="userSpaceOnUse">
<stop stop-color="#D93025"/>
<stop offset="1" stop-color="#EA4335"/>
</linearGradient>
<linearGradient id="paint1_linear_3_37" x1="71.2959" y1="26.8741" x2="10.6818" y2="26.874" gradientUnits="userSpaceOnUse">
<stop stop-color="#FCC934"/>
<stop offset="1" stop-color="#FBBC04"/>
</linearGradient>
<linearGradient id="paint2_linear_3_37" x1="42.7889" y1="72.8147" x2="12.4818" y2="20.3213" gradientUnits="userSpaceOnUse">
<stop stop-color="#1E8E3E"/>
<stop offset="1" stop-color="#34A853"/>
</linearGradient>
<clipPath id="clip0_3_37">
<rect width="70" height="70" fill="white" transform="translate(4 5)"/>
</clipPath>
</defs>
</svg>
