<svg width="255" height="80" viewBox="0 0 255 80" fill="none" xmlns="http://www.w3.org/2000/svg">
<rect x="0.5" y="0.5" width="254" height="79" rx="39.5" fill="#F6F8FA" fill-opacity="0.2"/>
<g clip-path="url(#clip0_3_169)">
<path d="M39.9956 22.9989L69.4357 22.999C66.4524 17.8301 62.1609 13.5378 56.9925 10.5536C51.8242 7.56939 45.9613 5.99853 39.9933 5.99895C34.0253 5.99937 28.1626 7.57105 22.9947 10.556C17.8268 13.5409 13.5359 17.8338 10.5534 23.0031L25.2735 48.4989L25.2865 48.4955C23.7891 45.9133 22.9989 42.982 22.9956 39.997C22.9922 37.012 23.7758 34.0789 25.2674 31.4934C26.7591 28.9078 28.9059 26.7612 31.4917 25.2698C34.0774 23.7785 37.0106 22.9952 39.9956 22.9989V22.9989Z" fill="url(#paint0_linear_3_169)"/>
<path d="M54.7256 48.4967L40.0055 73.9925C45.9735 73.9934 51.8365 72.423 57.0051 69.4392C62.1736 66.4554 66.4655 62.1634 69.4491 56.9947C72.4327 51.8261 74.003 45.963 74.0019 39.995C74.0009 34.027 72.4285 28.1645 69.4431 22.9969L40.003 22.997L39.9994 23.01C42.9844 23.0043 45.9181 23.7856 48.5048 25.2752C51.0916 26.7648 53.2399 28.91 54.7332 31.4945C56.2266 34.0791 57.0122 37.0117 57.0109 39.9966C57.0095 42.9816 56.2213 45.9135 54.7256 48.4967V48.4967Z" fill="url(#paint1_linear_3_169)"/>
<path d="M25.2788 48.5044L10.5588 23.0085C7.57409 28.1765 6.0026 34.0392 6.00238 40.0072C6.00216 45.9752 7.57321 51.8381 10.5576 57.0063C13.5419 62.1745 17.8344 66.4659 23.0033 69.449C28.1723 72.4321 34.0356 74.0017 40.0035 74L54.7236 48.5041L54.7141 48.4945C53.2265 51.0824 51.083 53.2324 48.4996 54.7278C45.9163 56.2232 42.9843 57.0111 39.9993 57.0121C37.0144 57.0131 34.0819 56.2272 31.4975 54.7335C28.9131 53.2399 26.7681 51.0913 25.2788 48.5044V48.5044Z" fill="url(#paint2_linear_3_169)"/>
<path d="M40 57C49.3888 57 57 49.3888 57 40C57 30.6112 49.3888 23 40 23C30.6112 23 23 30.6112 23 40C23 49.3888 30.6112 57 40 57Z" fill="white"/>
<path d="M40 53.4583C47.4328 53.4583 53.4583 47.4328 53.4583 40C53.4583 32.5672 47.4328 26.5417 40 26.5417C32.5672 26.5417 26.5417 32.5672 26.5417 40C26.5417 47.4328 32.5672 53.4583 40 53.4583Z" fill="#1A73E8"/>
</g>
<path d="M91.4609 33.8555L86.8203 48H83.082L89.4219 30.9375H91.8008L91.4609 33.8555ZM95.3164 48L90.6641 33.8555L90.2891 30.9375H92.6914L99.0664 48H95.3164ZM95.1055 41.6484V44.4023H86.0938V41.6484H95.1055ZM107.926 45.2344V30H111.324V48H108.266L107.926 45.2344ZM99.9102 41.8125V41.5664C99.9102 40.5977 100.02 39.7188 100.238 38.9297C100.457 38.1328 100.777 37.4492 101.199 36.8789C101.621 36.3086 102.141 35.8672 102.758 35.5547C103.375 35.2422 104.078 35.0859 104.867 35.0859C105.609 35.0859 106.258 35.2422 106.812 35.5547C107.375 35.8672 107.852 36.3125 108.242 36.8906C108.641 37.4609 108.961 38.1367 109.203 38.918C109.445 39.6914 109.621 40.5391 109.73 41.4609V42C109.621 42.8828 109.445 43.7031 109.203 44.4609C108.961 45.2188 108.641 45.8828 108.242 46.4531C107.852 47.0156 107.375 47.4531 106.812 47.7656C106.25 48.0781 105.594 48.2344 104.844 48.2344C104.055 48.2344 103.352 48.0742 102.734 47.7539C102.125 47.4336 101.609 46.9844 101.188 46.4062C100.773 45.8281 100.457 45.1484 100.238 44.3672C100.02 43.5859 99.9102 42.7344 99.9102 41.8125ZM103.285 41.5664V41.8125C103.285 42.3359 103.324 42.8242 103.402 43.2773C103.488 43.7305 103.625 44.1328 103.812 44.4844C104.008 44.8281 104.258 45.0977 104.562 45.293C104.875 45.4805 105.254 45.5742 105.699 45.5742C106.277 45.5742 106.754 45.4453 107.129 45.1875C107.504 44.9219 107.789 44.5586 107.984 44.0977C108.188 43.6367 108.305 43.1055 108.336 42.5039V40.9688C108.312 40.4766 108.242 40.0352 108.125 39.6445C108.016 39.2461 107.852 38.9062 107.633 38.625C107.422 38.3438 107.156 38.125 106.836 37.9688C106.523 37.8125 106.152 37.7344 105.723 37.7344C105.285 37.7344 104.91 37.8359 104.598 38.0391C104.285 38.2344 104.031 38.5039 103.836 38.8477C103.648 39.1914 103.508 39.5977 103.414 40.0664C103.328 40.5273 103.285 41.0273 103.285 41.5664ZM121.449 45.2344V30H124.848V48H121.789L121.449 45.2344ZM113.434 41.8125V41.5664C113.434 40.5977 113.543 39.7188 113.762 38.9297C113.98 38.1328 114.301 37.4492 114.723 36.8789C115.145 36.3086 115.664 35.8672 116.281 35.5547C116.898 35.2422 117.602 35.0859 118.391 35.0859C119.133 35.0859 119.781 35.2422 120.336 35.5547C120.898 35.8672 121.375 36.3125 121.766 36.8906C122.164 37.4609 122.484 38.1367 122.727 38.918C122.969 39.6914 123.145 40.5391 123.254 41.4609V42C123.145 42.8828 122.969 43.7031 122.727 44.4609C122.484 45.2188 122.164 45.8828 121.766 46.4531C121.375 47.0156 120.898 47.4531 120.336 47.7656C119.773 48.0781 119.117 48.2344 118.367 48.2344C117.578 48.2344 116.875 48.0742 116.258 47.7539C115.648 47.4336 115.133 46.9844 114.711 46.4062C114.297 45.8281 113.98 45.1484 113.762 44.3672C113.543 43.5859 113.434 42.7344 113.434 41.8125ZM116.809 41.5664V41.8125C116.809 42.3359 116.848 42.8242 116.926 43.2773C117.012 43.7305 117.148 44.1328 117.336 44.4844C117.531 44.8281 117.781 45.0977 118.086 45.293C118.398 45.4805 118.777 45.5742 119.223 45.5742C119.801 45.5742 120.277 45.4453 120.652 45.1875C121.027 44.9219 121.312 44.5586 121.508 44.0977C121.711 43.6367 121.828 43.1055 121.859 42.5039V40.9688C121.836 40.4766 121.766 40.0352 121.648 39.6445C121.539 39.2461 121.375 38.9062 121.156 38.625C120.945 38.3438 120.68 38.125 120.359 37.9688C120.047 37.8125 119.676 37.7344 119.246 37.7344C118.809 37.7344 118.434 37.8359 118.121 38.0391C117.809 38.2344 117.555 38.5039 117.359 38.8477C117.172 39.1914 117.031 39.5977 116.938 40.0664C116.852 40.5273 116.809 41.0273 116.809 41.5664ZM139.672 35.3203V37.7109H132.289V35.3203H139.672ZM134.117 32.1914H137.492V44.1797C137.492 44.5469 137.539 44.8281 137.633 45.0234C137.734 45.2188 137.883 45.3555 138.078 45.4336C138.273 45.5039 138.52 45.5391 138.816 45.5391C139.027 45.5391 139.215 45.5312 139.379 45.5156C139.551 45.4922 139.695 45.4688 139.812 45.4453L139.824 47.9297C139.535 48.0234 139.223 48.0977 138.887 48.1523C138.551 48.207 138.18 48.2344 137.773 48.2344C137.031 48.2344 136.383 48.1133 135.828 47.8711C135.281 47.6211 134.859 47.2227 134.562 46.6758C134.266 46.1289 134.117 45.4102 134.117 44.5195V32.1914ZM140.75 41.7891V41.543C140.75 40.6133 140.883 39.7578 141.148 38.9766C141.414 38.1875 141.801 37.5039 142.309 36.9258C142.816 36.3477 143.441 35.8984 144.184 35.5781C144.926 35.25 145.777 35.0859 146.738 35.0859C147.699 35.0859 148.555 35.25 149.305 35.5781C150.055 35.8984 150.684 36.3477 151.191 36.9258C151.707 37.5039 152.098 38.1875 152.363 38.9766C152.629 39.7578 152.762 40.6133 152.762 41.543V41.7891C152.762 42.7109 152.629 43.5664 152.363 44.3555C152.098 45.1367 151.707 45.8203 151.191 46.4062C150.684 46.9844 150.059 47.4336 149.316 47.7539C148.574 48.0742 147.723 48.2344 146.762 48.2344C145.801 48.2344 144.945 48.0742 144.195 47.7539C143.453 47.4336 142.824 46.9844 142.309 46.4062C141.801 45.8203 141.414 45.1367 141.148 44.3555C140.883 43.5664 140.75 42.7109 140.75 41.7891ZM144.125 41.543V41.7891C144.125 42.3203 144.172 42.8164 144.266 43.2773C144.359 43.7383 144.508 44.1445 144.711 44.4961C144.922 44.8398 145.195 45.1094 145.531 45.3047C145.867 45.5 146.277 45.5977 146.762 45.5977C147.23 45.5977 147.633 45.5 147.969 45.3047C148.305 45.1094 148.574 44.8398 148.777 44.4961C148.98 44.1445 149.129 43.7383 149.223 43.2773C149.324 42.8164 149.375 42.3203 149.375 41.7891V41.543C149.375 41.0273 149.324 40.543 149.223 40.0898C149.129 39.6289 148.977 39.2227 148.766 38.8711C148.562 38.5117 148.293 38.2305 147.957 38.0273C147.621 37.8242 147.215 37.7227 146.738 37.7227C146.262 37.7227 145.855 37.8242 145.52 38.0273C145.191 38.2305 144.922 38.5117 144.711 38.8711C144.508 39.2227 144.359 39.6289 144.266 40.0898C144.172 40.543 144.125 41.0273 144.125 41.543ZM170.914 42.3398H174.418C174.348 43.4883 174.031 44.5078 173.469 45.3984C172.914 46.2891 172.137 46.9844 171.137 47.4844C170.145 47.9844 168.949 48.2344 167.551 48.2344C166.457 48.2344 165.477 48.0469 164.609 47.6719C163.742 47.2891 163 46.7422 162.383 46.0312C161.773 45.3203 161.309 44.4609 160.988 43.4531C160.668 42.4453 160.508 41.3164 160.508 40.0664V38.8828C160.508 37.6328 160.672 36.5039 161 35.4961C161.336 34.4805 161.812 33.6172 162.43 32.9062C163.055 32.1953 163.801 31.6484 164.668 31.2656C165.535 30.8828 166.504 30.6914 167.574 30.6914C168.996 30.6914 170.195 30.9492 171.172 31.4648C172.156 31.9805 172.918 32.6914 173.457 33.5977C174.004 34.5039 174.332 35.5352 174.441 36.6914H170.926C170.887 36.0039 170.75 35.4219 170.516 34.9453C170.281 34.4609 169.926 34.0977 169.449 33.8555C168.98 33.6055 168.355 33.4805 167.574 33.4805C166.988 33.4805 166.477 33.5898 166.039 33.8086C165.602 34.0273 165.234 34.3594 164.938 34.8047C164.641 35.25 164.418 35.8125 164.27 36.4922C164.129 37.1641 164.059 37.9531 164.059 38.8594V40.0664C164.059 40.9492 164.125 41.7266 164.258 42.3984C164.391 43.0625 164.594 43.625 164.867 44.0859C165.148 44.5391 165.508 44.8828 165.945 45.1172C166.391 45.3438 166.926 45.457 167.551 45.457C168.285 45.457 168.891 45.3398 169.367 45.1055C169.844 44.8711 170.207 44.5234 170.457 44.0625C170.715 43.6016 170.867 43.0273 170.914 42.3398ZM179.809 30V48H176.434V30H179.809ZM179.328 41.2148H178.402C178.41 40.332 178.527 39.5195 178.754 38.7773C178.98 38.0273 179.305 37.3789 179.727 36.832C180.148 36.2773 180.652 35.8477 181.238 35.543C181.832 35.2383 182.488 35.0859 183.207 35.0859C183.832 35.0859 184.398 35.1758 184.906 35.3555C185.422 35.5273 185.863 35.8086 186.23 36.1992C186.605 36.582 186.895 37.0859 187.098 37.7109C187.301 38.3359 187.402 39.0938 187.402 39.9844V48H184.004V39.9609C184.004 39.3984 183.922 38.957 183.758 38.6367C183.602 38.3086 183.371 38.0781 183.066 37.9453C182.77 37.8047 182.402 37.7344 181.965 37.7344C181.48 37.7344 181.066 37.8242 180.723 38.0039C180.387 38.1836 180.117 38.4336 179.914 38.7539C179.711 39.0664 179.562 39.4336 179.469 39.8555C179.375 40.2773 179.328 40.7305 179.328 41.2148ZM193.344 38.0859V48H189.969V35.3203H193.145L193.344 38.0859ZM197.164 35.2383L197.105 38.3672C196.941 38.3438 196.742 38.3242 196.508 38.3086C196.281 38.2852 196.074 38.2734 195.887 38.2734C195.41 38.2734 194.996 38.3359 194.645 38.4609C194.301 38.5781 194.012 38.7539 193.777 38.9883C193.551 39.2227 193.379 39.5078 193.262 39.8438C193.152 40.1797 193.09 40.5625 193.074 40.9922L192.395 40.7812C192.395 39.9609 192.477 39.207 192.641 38.5195C192.805 37.8242 193.043 37.2188 193.355 36.7031C193.676 36.1875 194.066 35.7891 194.527 35.5078C194.988 35.2266 195.516 35.0859 196.109 35.0859C196.297 35.0859 196.488 35.1016 196.684 35.1328C196.879 35.1562 197.039 35.1914 197.164 35.2383ZM197.867 41.7891V41.543C197.867 40.6133 198 39.7578 198.266 38.9766C198.531 38.1875 198.918 37.5039 199.426 36.9258C199.934 36.3477 200.559 35.8984 201.301 35.5781C202.043 35.25 202.895 35.0859 203.855 35.0859C204.816 35.0859 205.672 35.25 206.422 35.5781C207.172 35.8984 207.801 36.3477 208.309 36.9258C208.824 37.5039 209.215 38.1875 209.48 38.9766C209.746 39.7578 209.879 40.6133 209.879 41.543V41.7891C209.879 42.7109 209.746 43.5664 209.48 44.3555C209.215 45.1367 208.824 45.8203 208.309 46.4062C207.801 46.9844 207.176 47.4336 206.434 47.7539C205.691 48.0742 204.84 48.2344 203.879 48.2344C202.918 48.2344 202.062 48.0742 201.312 47.7539C200.57 47.4336 199.941 46.9844 199.426 46.4062C198.918 45.8203 198.531 45.1367 198.266 44.3555C198 43.5664 197.867 42.7109 197.867 41.7891ZM201.242 41.543V41.7891C201.242 42.3203 201.289 42.8164 201.383 43.2773C201.477 43.7383 201.625 44.1445 201.828 44.4961C202.039 44.8398 202.312 45.1094 202.648 45.3047C202.984 45.5 203.395 45.5977 203.879 45.5977C204.348 45.5977 204.75 45.5 205.086 45.3047C205.422 45.1094 205.691 44.8398 205.895 44.4961C206.098 44.1445 206.246 43.7383 206.34 43.2773C206.441 42.8164 206.492 42.3203 206.492 41.7891V41.543C206.492 41.0273 206.441 40.543 206.34 40.0898C206.246 39.6289 206.094 39.2227 205.883 38.8711C205.68 38.5117 205.41 38.2305 205.074 38.0273C204.738 37.8242 204.332 37.7227 203.855 37.7227C203.379 37.7227 202.973 37.8242 202.637 38.0273C202.309 38.2305 202.039 38.5117 201.828 38.8711C201.625 39.2227 201.477 39.6289 201.383 40.0898C201.289 40.543 201.242 41.0273 201.242 41.543ZM215.328 37.9453V48H211.941V35.3203H215.117L215.328 37.9453ZM214.859 41.2148H213.922C213.922 40.332 214.027 39.5195 214.238 38.7773C214.457 38.0273 214.773 37.3789 215.188 36.832C215.609 36.2773 216.129 35.8477 216.746 35.543C217.363 35.2383 218.078 35.0859 218.891 35.0859C219.453 35.0859 219.969 35.1719 220.438 35.3438C220.906 35.5078 221.309 35.7695 221.645 36.1289C221.988 36.4805 222.254 36.9414 222.441 37.5117C222.629 38.0742 222.723 38.75 222.723 39.5391V48H219.348V39.9141C219.348 39.3359 219.27 38.8906 219.113 38.5781C218.957 38.2656 218.734 38.0469 218.445 37.9219C218.164 37.7969 217.824 37.7344 217.426 37.7344C216.988 37.7344 216.605 37.8242 216.277 38.0039C215.957 38.1836 215.691 38.4336 215.48 38.7539C215.27 39.0664 215.113 39.4336 215.012 39.8555C214.91 40.2773 214.859 40.7305 214.859 41.2148ZM222.406 40.8281L221.199 40.9805C221.199 40.1523 221.301 39.3828 221.504 38.6719C221.715 37.9609 222.023 37.3359 222.43 36.7969C222.844 36.2578 223.355 35.8398 223.965 35.543C224.574 35.2383 225.277 35.0859 226.074 35.0859C226.684 35.0859 227.238 35.1758 227.738 35.3555C228.238 35.5273 228.664 35.8047 229.016 36.1875C229.375 36.5625 229.648 37.0547 229.836 37.6641C230.031 38.2734 230.129 39.0195 230.129 39.9023V48H226.742V39.9023C226.742 39.3164 226.664 38.8711 226.508 38.5664C226.359 38.2539 226.141 38.0391 225.852 37.9219C225.57 37.7969 225.234 37.7344 224.844 37.7344C224.438 37.7344 224.082 37.8164 223.777 37.9805C223.473 38.1367 223.219 38.3555 223.016 38.6367C222.812 38.918 222.66 39.2461 222.559 39.6211C222.457 39.9883 222.406 40.3906 222.406 40.8281ZM238.578 48.2344C237.594 48.2344 236.711 48.0781 235.93 47.7656C235.148 47.4453 234.484 47.0039 233.938 46.4414C233.398 45.8789 232.984 45.2266 232.695 44.4844C232.406 43.7344 232.262 42.9375 232.262 42.0938V41.625C232.262 40.6641 232.398 39.7852 232.672 38.9883C232.945 38.1914 233.336 37.5 233.844 36.9141C234.359 36.3281 234.984 35.8789 235.719 35.5664C236.453 35.2461 237.281 35.0859 238.203 35.0859C239.102 35.0859 239.898 35.2344 240.594 35.5312C241.289 35.8281 241.871 36.25 242.34 36.7969C242.816 37.3438 243.176 38 243.418 38.7656C243.66 39.5234 243.781 40.3672 243.781 41.2969V42.7031H233.703V40.4531H240.465V40.1953C240.465 39.7266 240.379 39.3086 240.207 38.9414C240.043 38.5664 239.793 38.2695 239.457 38.0508C239.121 37.832 238.691 37.7227 238.168 37.7227C237.723 37.7227 237.34 37.8203 237.02 38.0156C236.699 38.2109 236.438 38.4844 236.234 38.8359C236.039 39.1875 235.891 39.6016 235.789 40.0781C235.695 40.5469 235.648 41.0625 235.648 41.625V42.0938C235.648 42.6016 235.719 43.0703 235.859 43.5C236.008 43.9297 236.215 44.3008 236.48 44.6133C236.754 44.9258 237.082 45.168 237.465 45.3398C237.855 45.5117 238.297 45.5977 238.789 45.5977C239.398 45.5977 239.965 45.4805 240.488 45.2461C241.02 45.0039 241.477 44.6406 241.859 44.1562L243.5 45.9375C243.234 46.3203 242.871 46.6875 242.41 47.0391C241.957 47.3906 241.41 47.6797 240.77 47.9062C240.129 48.125 239.398 48.2344 238.578 48.2344Z" fill="#1E1E1E"/>
<rect x="0.5" y="0.5" width="254" height="79" rx="39.5" stroke="#D0D7DE"/>
<defs>
<linearGradient id="paint0_linear_3_169" x1="65.7629" y1="20.8773" x2="36.3218" y2="71.8708" gradientUnits="userSpaceOnUse">
<stop stop-color="#D93025"/>
<stop offset="1" stop-color="#EA4335"/>
</linearGradient>
<linearGradient id="paint1_linear_3_169" x1="71.3731" y1="27.2491" x2="12.4909" y2="27.249" gradientUnits="userSpaceOnUse">
<stop stop-color="#FCC934"/>
<stop offset="1" stop-color="#FBBC04"/>
</linearGradient>
<linearGradient id="paint2_linear_3_169" x1="43.6806" y1="71.8771" x2="14.2395" y2="20.8835" gradientUnits="userSpaceOnUse">
<stop stop-color="#1E8E3E"/>
<stop offset="1" stop-color="#34A853"/>
</linearGradient>
<clipPath id="clip0_3_169">
<rect width="68" height="68" fill="white" transform="translate(6 6)"/>
</clipPath>
</defs>
</svg>
