<svg width="255" height="80" viewBox="0 0 255 80" fill="none" xmlns="http://www.w3.org/2000/svg">
<path d="M0 40C0 17.9086 17.9086 0 40 0H215C237.091 0 255 17.9086 255 40V40C255 62.0914 237.091 80 215 80H40C17.9086 80 0 62.0914 0 40V40Z" fill="#252525"/>
<path d="M87.8135 34.2661L82.9795 49H79.0854L85.6895 31.2266H88.1675L87.8135 34.2661ZM91.8296 49L86.9834 34.2661L86.5928 31.2266H89.0952L95.7358 49H91.8296ZM91.6099 42.3838V45.2524H82.2227V42.3838H91.6099ZM104.964 46.1191V30.25H108.504V49H105.318L104.964 46.1191ZM96.6147 42.5547V42.2983C96.6147 41.2892 96.7287 40.3737 96.9565 39.5518C97.1844 38.7217 97.5181 38.0096 97.9575 37.4155C98.397 36.8215 98.9382 36.3617 99.5811 36.0361C100.224 35.7106 100.956 35.5479 101.778 35.5479C102.551 35.5479 103.227 35.7106 103.805 36.0361C104.391 36.3617 104.887 36.8255 105.294 37.4277C105.709 38.0218 106.043 38.7257 106.295 39.5396C106.547 40.3452 106.73 41.2282 106.844 42.1885V42.75C106.73 43.6696 106.547 44.5241 106.295 45.3135C106.043 46.1029 105.709 46.7946 105.294 47.3887C104.887 47.9746 104.391 48.4303 103.805 48.7559C103.219 49.0814 102.535 49.2441 101.754 49.2441C100.932 49.2441 100.2 49.0773 99.5566 48.7437C98.9219 48.41 98.3848 47.9421 97.9453 47.3398C97.514 46.7376 97.1844 46.0296 96.9565 45.2158C96.7287 44.402 96.6147 43.515 96.6147 42.5547ZM100.13 42.2983V42.5547C100.13 43.0999 100.171 43.6086 100.252 44.0806C100.342 44.5526 100.484 44.9717 100.68 45.3379C100.883 45.696 101.144 45.9767 101.461 46.1802C101.786 46.3755 102.181 46.4731 102.645 46.4731C103.247 46.4731 103.744 46.3389 104.134 46.0703C104.525 45.7936 104.822 45.4152 105.025 44.9351C105.237 44.4549 105.359 43.9015 105.392 43.2749V41.6758C105.367 41.1631 105.294 40.7033 105.172 40.2964C105.058 39.8813 104.887 39.5273 104.659 39.2344C104.439 38.9414 104.163 38.7135 103.829 38.5508C103.504 38.388 103.117 38.3066 102.669 38.3066C102.214 38.3066 101.823 38.4124 101.498 38.624C101.172 38.8275 100.908 39.1082 100.704 39.4663C100.509 39.8244 100.362 40.2476 100.265 40.7358C100.175 41.216 100.13 41.7368 100.13 42.2983ZM119.051 46.1191V30.25H122.591V49H119.405L119.051 46.1191ZM110.702 42.5547V42.2983C110.702 41.2892 110.816 40.3737 111.043 39.5518C111.271 38.7217 111.605 38.0096 112.044 37.4155C112.484 36.8215 113.025 36.3617 113.668 36.0361C114.311 35.7106 115.043 35.5479 115.865 35.5479C116.638 35.5479 117.314 35.7106 117.892 36.0361C118.478 36.3617 118.974 36.8255 119.381 37.4277C119.796 38.0218 120.13 38.7257 120.382 39.5396C120.634 40.3452 120.817 41.2282 120.931 42.1885V42.75C120.817 43.6696 120.634 44.5241 120.382 45.3135C120.13 46.1029 119.796 46.7946 119.381 47.3887C118.974 47.9746 118.478 48.4303 117.892 48.7559C117.306 49.0814 116.622 49.2441 115.841 49.2441C115.019 49.2441 114.286 49.0773 113.644 48.7437C113.009 48.41 112.472 47.9421 112.032 47.3398C111.601 46.7376 111.271 46.0296 111.043 45.2158C110.816 44.402 110.702 43.515 110.702 42.5547ZM114.217 42.2983V42.5547C114.217 43.0999 114.258 43.6086 114.339 44.0806C114.429 44.5526 114.571 44.9717 114.767 45.3379C114.97 45.696 115.23 45.9767 115.548 46.1802C115.873 46.3755 116.268 46.4731 116.732 46.4731C117.334 46.4731 117.831 46.3389 118.221 46.0703C118.612 45.7936 118.909 45.4152 119.112 44.9351C119.324 44.4549 119.446 43.9015 119.479 43.2749V41.6758C119.454 41.1631 119.381 40.7033 119.259 40.2964C119.145 39.8813 118.974 39.5273 118.746 39.2344C118.526 38.9414 118.25 38.7135 117.916 38.5508C117.59 38.388 117.204 38.3066 116.756 38.3066C116.301 38.3066 115.91 38.4124 115.584 38.624C115.259 38.8275 114.994 39.1082 114.791 39.4663C114.596 39.8244 114.449 40.2476 114.352 40.7358C114.262 41.216 114.217 41.7368 114.217 42.2983ZM138.033 35.792V38.2822H130.343V35.792H138.033ZM132.247 32.5327H135.763V45.0205C135.763 45.403 135.812 45.696 135.909 45.8994C136.015 46.1029 136.17 46.2453 136.373 46.3267C136.576 46.3999 136.833 46.4365 137.142 46.4365C137.362 46.4365 137.557 46.4284 137.728 46.4121C137.907 46.3877 138.058 46.3633 138.18 46.3389L138.192 48.9268C137.891 49.0244 137.565 49.1017 137.215 49.1587C136.865 49.2157 136.479 49.2441 136.056 49.2441C135.283 49.2441 134.607 49.118 134.029 48.8657C133.46 48.6053 133.02 48.1903 132.711 47.6206C132.402 47.0509 132.247 46.3022 132.247 45.3745V32.5327ZM139.156 42.5303V42.2739C139.156 41.3055 139.295 40.4144 139.571 39.6006C139.848 38.7786 140.251 38.0666 140.78 37.4644C141.309 36.8621 141.96 36.3942 142.733 36.0605C143.506 35.7188 144.393 35.5479 145.394 35.5479C146.395 35.5479 147.286 35.7188 148.067 36.0605C148.849 36.3942 149.504 36.8621 150.033 37.4644C150.57 38.0666 150.977 38.7786 151.253 39.6006C151.53 40.4144 151.668 41.3055 151.668 42.2739V42.5303C151.668 43.4906 151.53 44.3817 151.253 45.2036C150.977 46.0174 150.57 46.7295 150.033 47.3398C149.504 47.9421 148.853 48.41 148.08 48.7437C147.306 49.0773 146.419 49.2441 145.418 49.2441C144.417 49.2441 143.526 49.0773 142.745 48.7437C141.972 48.41 141.317 47.9421 140.78 47.3398C140.251 46.7295 139.848 46.0174 139.571 45.2036C139.295 44.3817 139.156 43.4906 139.156 42.5303ZM142.672 42.2739V42.5303C142.672 43.0837 142.721 43.6004 142.818 44.0806C142.916 44.5607 143.071 44.9839 143.282 45.3501C143.502 45.7082 143.787 45.9889 144.137 46.1924C144.487 46.3958 144.914 46.4976 145.418 46.4976C145.907 46.4976 146.326 46.3958 146.676 46.1924C147.026 45.9889 147.306 45.7082 147.518 45.3501C147.73 44.9839 147.884 44.5607 147.982 44.0806C148.088 43.6004 148.141 43.0837 148.141 42.5303V42.2739C148.141 41.7368 148.088 41.2323 147.982 40.7603C147.884 40.2801 147.726 39.8569 147.506 39.4907C147.294 39.1164 147.014 38.8234 146.664 38.6118C146.314 38.4002 145.89 38.2944 145.394 38.2944C144.898 38.2944 144.474 38.4002 144.125 38.6118C143.783 38.8234 143.502 39.1164 143.282 39.4907C143.071 39.8569 142.916 40.2801 142.818 40.7603C142.721 41.2323 142.672 41.7368 142.672 42.2739ZM163.937 31.2266V49H160.274V31.2266H163.937ZM171.017 38.8193V41.6758H162.936V38.8193H171.017ZM171.871 31.2266V34.0952H162.936V31.2266H171.871ZM177.486 35.792V49H173.958V35.792H177.486ZM173.739 32.3496C173.739 31.8369 173.918 31.4137 174.276 31.0801C174.634 30.7464 175.114 30.5796 175.716 30.5796C176.31 30.5796 176.786 30.7464 177.145 31.0801C177.511 31.4137 177.694 31.8369 177.694 32.3496C177.694 32.8623 177.511 33.2855 177.145 33.6191C176.786 33.9528 176.31 34.1196 175.716 34.1196C175.114 34.1196 174.634 33.9528 174.276 33.6191C173.918 33.2855 173.739 32.8623 173.739 32.3496ZM183.907 38.6729V49H180.392V35.792H183.7L183.907 38.6729ZM187.887 35.7065L187.826 38.9658C187.655 38.9414 187.447 38.9211 187.203 38.9048C186.967 38.8804 186.751 38.8682 186.556 38.8682C186.06 38.8682 185.628 38.9333 185.262 39.0635C184.904 39.1855 184.603 39.3687 184.359 39.6128C184.123 39.8569 183.944 40.154 183.822 40.5039C183.708 40.8538 183.643 41.2526 183.626 41.7002L182.918 41.4805C182.918 40.626 183.004 39.8407 183.175 39.1245C183.346 38.4002 183.594 37.7695 183.919 37.2324C184.253 36.6953 184.66 36.2803 185.14 35.9873C185.62 35.6943 186.17 35.5479 186.788 35.5479C186.983 35.5479 187.183 35.5641 187.386 35.5967C187.59 35.6211 187.757 35.6577 187.887 35.7065ZM195.382 49.2441C194.356 49.2441 193.437 49.0814 192.623 48.7559C191.809 48.4222 191.118 47.9624 190.548 47.3765C189.986 46.7905 189.555 46.111 189.254 45.3379C188.953 44.5566 188.802 43.7266 188.802 42.8477V42.3594C188.802 41.3584 188.945 40.4429 189.229 39.6128C189.514 38.7827 189.921 38.0625 190.45 37.4521C190.987 36.8418 191.638 36.3739 192.403 36.0483C193.168 35.7147 194.031 35.5479 194.991 35.5479C195.927 35.5479 196.757 35.7025 197.481 36.0117C198.206 36.321 198.812 36.7604 199.3 37.3301C199.797 37.8997 200.171 38.5833 200.423 39.3809C200.676 40.1702 200.802 41.0492 200.802 42.0176V43.4824H190.304V41.1387H197.347V40.8701C197.347 40.3818 197.258 39.9465 197.079 39.564C196.908 39.1733 196.647 38.8641 196.297 38.6362C195.947 38.4084 195.5 38.2944 194.955 38.2944C194.491 38.2944 194.092 38.3962 193.758 38.5996C193.425 38.8031 193.152 39.0879 192.94 39.4541C192.737 39.8203 192.582 40.2516 192.477 40.748C192.379 41.2363 192.33 41.7734 192.33 42.3594V42.8477C192.33 43.3766 192.403 43.8649 192.55 44.3125C192.704 44.7601 192.92 45.1466 193.197 45.4722C193.482 45.7977 193.823 46.05 194.222 46.229C194.629 46.408 195.089 46.4976 195.602 46.4976C196.236 46.4976 196.826 46.3755 197.372 46.1313C197.925 45.8791 198.401 45.5007 198.8 44.9961L200.509 46.8516C200.232 47.2503 199.854 47.6328 199.374 47.999C198.902 48.3652 198.332 48.6663 197.665 48.9023C196.997 49.1302 196.236 49.2441 195.382 49.2441ZM207.284 49H203.744V34.6201C203.744 33.6191 203.939 32.7769 204.33 32.0933C204.728 31.4015 205.286 30.8807 206.002 30.5308C206.726 30.1727 207.585 29.9937 208.578 29.9937C208.903 29.9937 209.216 30.0181 209.518 30.0669C209.819 30.1076 210.112 30.1605 210.396 30.2256L210.36 32.8745C210.205 32.8338 210.042 32.8053 209.872 32.7891C209.701 32.7728 209.501 32.7646 209.273 32.7646C208.85 32.7646 208.488 32.8379 208.187 32.9844C207.894 33.1227 207.67 33.3302 207.516 33.6069C207.361 33.8836 207.284 34.2214 207.284 34.6201V49ZM209.92 35.792V38.2822H201.778V35.792H209.92ZM211.202 42.5303V42.2739C211.202 41.3055 211.34 40.4144 211.617 39.6006C211.894 38.7786 212.297 38.0666 212.826 37.4644C213.355 36.8621 214.006 36.3942 214.779 36.0605C215.552 35.7188 216.439 35.5479 217.44 35.5479C218.441 35.5479 219.332 35.7188 220.113 36.0605C220.895 36.3942 221.55 36.8621 222.079 37.4644C222.616 38.0666 223.023 38.7786 223.299 39.6006C223.576 40.4144 223.714 41.3055 223.714 42.2739V42.5303C223.714 43.4906 223.576 44.3817 223.299 45.2036C223.023 46.0174 222.616 46.7295 222.079 47.3398C221.55 47.9421 220.899 48.41 220.125 48.7437C219.352 49.0773 218.465 49.2441 217.464 49.2441C216.463 49.2441 215.572 49.0773 214.791 48.7437C214.018 48.41 213.363 47.9421 212.826 47.3398C212.297 46.7295 211.894 46.0174 211.617 45.2036C211.34 44.3817 211.202 43.4906 211.202 42.5303ZM214.718 42.2739V42.5303C214.718 43.0837 214.767 43.6004 214.864 44.0806C214.962 44.5607 215.117 44.9839 215.328 45.3501C215.548 45.7082 215.833 45.9889 216.183 46.1924C216.533 46.3958 216.96 46.4976 217.464 46.4976C217.953 46.4976 218.372 46.3958 218.722 46.1924C219.072 45.9889 219.352 45.7082 219.564 45.3501C219.776 44.9839 219.93 44.5607 220.028 44.0806C220.134 43.6004 220.187 43.0837 220.187 42.5303V42.2739C220.187 41.7368 220.134 41.2323 220.028 40.7603C219.93 40.2801 219.771 39.8569 219.552 39.4907C219.34 39.1164 219.059 38.8234 218.709 38.6118C218.36 38.4002 217.936 38.2944 217.44 38.2944C216.944 38.2944 216.52 38.4002 216.17 38.6118C215.829 38.8234 215.548 39.1164 215.328 39.4907C215.117 39.8569 214.962 40.2801 214.864 40.7603C214.767 41.2323 214.718 41.7368 214.718 42.2739ZM228.438 35.792L230.624 39.8081L232.87 35.792H236.617L232.882 42.2495L236.788 49H233.028L230.648 44.752L228.268 49H224.508L228.414 42.2495L224.679 35.792H228.438Z" fill="white"/>
<path d="M72.4625 28.5044C70.94 24.957 67.8515 21.1269 65.4329 19.9161C67.1576 23.15 68.3547 26.623 68.9816 30.2116L68.988 30.2685C65.0261 20.7084 58.3102 16.8476 52.8221 8.45191C52.5446 8.02731 52.267 7.60183 51.9967 7.15272C51.8421 6.89621 51.7182 6.66509 51.6106 6.45235C51.383 6.02561 51.2076 5.57461 51.088 5.10851C51.0882 5.087 51.0801 5.06619 51.0655 5.05004C51.0508 5.0339 51.0305 5.02355 51.0084 5.02097C50.9868 5.01523 50.964 5.01523 50.9424 5.02097C50.9379 5.02097 50.9307 5.02884 50.9253 5.0306C50.9198 5.03235 50.9081 5.04023 50.9 5.04373L50.9135 5.02097C42.1118 10.0111 39.1237 19.2473 38.8524 23.8697C35.3362 24.1031 31.9743 25.3574 29.2054 27.4687C28.9166 27.2319 28.6148 27.0104 28.3012 26.8051C27.5029 24.099 27.4688 21.2351 28.2027 18.5119C24.9703 20.028 22.0981 22.1774 19.7681 24.824H19.7518C18.363 23.1194 18.4607 17.499 18.5402 16.325C18.1294 16.4848 17.7372 16.6864 17.3703 16.9264C16.1443 17.7736 14.9982 18.7243 13.9455 19.7673C12.7458 20.9451 11.65 22.2181 10.6698 23.5729V23.5782V23.5721C8.41719 26.6639 6.81929 30.1571 5.96832 33.85L5.92131 34.0741C5.85531 34.3727 5.61752 35.868 5.57683 36.1927C5.57683 36.2181 5.57141 36.2418 5.5687 36.2672C5.26197 37.8109 5.0719 39.3743 5 40.9448V41.1199C5.01549 49.6106 8.31778 57.7872 14.255 64.0356C20.1922 70.2839 28.3329 74.15 37.07 74.8705C45.8071 75.5911 54.5058 73.1138 61.4488 67.9277C68.3918 62.7416 73.0746 55.2235 74.5728 46.8577C74.6316 46.4199 74.6795 45.9866 74.7319 45.5445C75.4537 39.7681 74.6723 33.9086 72.4589 28.4992L72.4625 28.5044ZM32.0751 55.066C32.2387 55.1422 32.3924 55.2245 32.5606 55.2971L32.585 55.312C32.415 55.2332 32.245 55.1512 32.0751 55.066ZM68.9889 30.2781V30.2457L68.9952 30.2816L68.9889 30.2781Z" fill="url(#paint0_linear_3_11)"/>
<path d="M72.4625 28.5044C70.9399 24.957 67.8514 21.1268 65.4329 19.9161C67.1575 23.15 68.3546 26.6229 68.9816 30.2115V30.2439L68.9879 30.2798C71.6893 37.7642 71.2986 45.97 67.8975 53.182C63.8814 61.526 54.1638 70.0784 38.9473 69.6582C22.5102 69.2073 8.02606 57.393 5.32271 41.9235C4.82996 39.4836 5.32271 38.2466 5.57044 36.2636C5.23253 37.8039 5.04395 39.3714 5.00717 40.9456V41.1207C5.02266 49.6114 8.32495 57.788 14.2622 64.0364C20.1994 70.2847 28.3401 74.1508 37.0772 74.8714C45.8143 75.5919 54.5129 73.1146 61.4559 67.9285C68.3989 62.7424 73.0817 55.2244 74.5799 46.8585C74.6387 46.4208 74.6866 45.9874 74.7391 45.5453C75.4609 39.7689 74.6795 33.9094 72.4661 28.5L72.4625 28.5044Z" fill="url(#paint1_radial_3_11)"/>
<path d="M72.4625 28.5044C70.9399 24.957 67.8514 21.1268 65.4329 19.9161C67.1575 23.15 68.3546 26.6229 68.9816 30.2115V30.2439L68.9879 30.2798C71.6893 37.7642 71.2986 45.97 67.8975 53.182C63.8814 61.526 54.1638 70.0784 38.9473 69.6582C22.5102 69.2073 8.02606 57.393 5.32271 41.9235C4.82996 39.4836 5.32271 38.2466 5.57044 36.2636C5.23253 37.8039 5.04395 39.3714 5.00717 40.9456V41.1207C5.02266 49.6114 8.32495 57.788 14.2622 64.0364C20.1994 70.2847 28.3401 74.1508 37.0772 74.8714C45.8143 75.5919 54.5129 73.1146 61.4559 67.9285C68.3989 62.7424 73.0817 55.2244 74.5799 46.8585C74.6387 46.4208 74.6866 45.9874 74.7391 45.5453C75.4609 39.7689 74.6795 33.9094 72.4661 28.5L72.4625 28.5044Z" fill="url(#paint2_radial_3_11)"/>
<path d="M55.4287 32.4877C55.5046 32.5394 55.5751 32.591 55.6466 32.6427C54.7664 31.1314 53.6706 29.7477 52.3917 28.5324C41.4969 17.983 49.5374 5.66525 50.8927 5.03492L50.9062 5.01566C42.1045 10.0058 39.1164 19.242 38.8451 23.8644C39.2538 23.8373 39.6588 23.804 40.0765 23.804C43.1993 23.8098 46.2647 24.6162 48.9612 26.1412C51.6578 27.6661 53.8892 29.8552 55.4287 32.486V32.4877Z" fill="url(#paint3_radial_3_11)"/>
<path d="M40.0946 34.5976C40.0368 35.4416 36.9573 38.3525 35.8805 38.3525C25.917 38.3525 24.2986 44.1892 24.2986 44.1892C24.7398 49.1041 28.2768 53.154 32.5524 55.2901C32.7477 55.3882 32.9457 55.4766 33.1437 55.5633C33.4867 55.7103 33.8296 55.8463 34.1726 55.9712C35.64 56.474 37.1769 56.7611 38.7321 56.823C56.1999 57.6162 59.5813 36.5998 46.9769 30.4978C49.9501 30.1232 52.9611 30.8311 55.426 32.4843C53.8865 29.8535 51.655 27.6644 48.9585 26.1395C46.262 24.6145 43.1966 23.8081 40.0738 23.8023C39.6579 23.8023 39.2511 23.8355 38.8424 23.8627C35.3262 24.0961 31.9643 25.3503 29.1953 27.4617C29.7297 27.8995 30.3327 28.4843 31.603 29.6968C33.9809 31.9651 40.0793 34.3149 40.0928 34.5906L40.0946 34.5976Z" fill="url(#paint4_radial_3_11)"/>
<path d="M40.0946 34.5976C40.0368 35.4416 36.9573 38.3525 35.8805 38.3525C25.917 38.3525 24.2986 44.1892 24.2986 44.1892C24.7398 49.1041 28.2768 53.154 32.5524 55.2901C32.7477 55.3882 32.9457 55.4766 33.1437 55.5633C33.4867 55.7103 33.8296 55.8463 34.1726 55.9712C35.64 56.474 37.1769 56.7611 38.7321 56.823C56.1999 57.6162 59.5813 36.5998 46.9769 30.4978C49.9501 30.1232 52.9611 30.8311 55.426 32.4843C53.8865 29.8535 51.655 27.6644 48.9585 26.1395C46.262 24.6145 43.1966 23.8081 40.0738 23.8023C39.6579 23.8023 39.2511 23.8355 38.8424 23.8627C35.3262 24.0961 31.9643 25.3503 29.1953 27.4617C29.7297 27.8995 30.3327 28.4843 31.603 29.6968C33.9809 31.9651 40.0793 34.3149 40.0928 34.5906L40.0946 34.5976Z" fill="url(#paint5_radial_3_11)"/>
<path d="M27.5634 26.342C27.8473 26.5171 28.0815 26.6694 28.2867 26.8069C27.4884 24.1008 27.4543 21.2368 28.1882 18.5136C24.9558 20.0297 22.0836 22.1791 19.7535 24.8257C19.9244 24.8213 25.0074 24.7329 27.5634 26.342Z" fill="url(#paint6_radial_3_11)"/>
<path d="M5.3164 41.9252C8.02065 57.3947 22.5039 69.2135 38.941 69.66C54.1575 70.0767 63.8769 61.5234 67.8912 53.1837C71.2923 45.9717 71.683 37.766 68.9816 30.2816V30.2492C68.9816 30.2238 68.9762 30.2089 68.9816 30.2168L68.9879 30.2737C70.2311 38.1327 66.1028 45.7431 59.6483 50.8996L59.6284 50.9434C47.0519 60.8624 35.018 56.9263 32.5859 55.3207C32.4159 55.2419 32.2459 55.1599 32.0759 55.0747C24.7443 51.6814 21.7146 45.217 22.3656 39.6665C20.6252 39.6914 18.9148 39.227 17.4414 38.3297C15.9681 37.4323 14.7952 36.1405 14.0648 34.6107C15.9895 33.4691 18.184 32.8237 20.4393 32.736C22.6947 32.6484 24.9356 33.1214 26.9486 34.11C31.0979 35.9337 35.8193 36.1134 40.1037 34.6107C40.0901 34.335 33.9918 31.9843 31.6139 29.7169C30.3436 28.5044 29.7406 27.9204 29.2062 27.4818C28.9174 27.245 28.6156 27.0235 28.3021 26.8182C28.0941 26.6808 27.86 26.532 27.5788 26.3534C25.0228 24.7443 19.9398 24.8327 19.7716 24.8371H19.7553C18.3666 23.1325 18.4643 17.512 18.5438 16.338C18.133 16.4979 17.7408 16.6995 17.3739 16.9395C16.1479 17.7867 15.0018 18.7374 13.949 19.7804C12.745 20.9548 11.6448 22.2249 10.6598 23.5773C8.40719 26.6691 6.80929 30.1614 5.95833 33.8543C5.94115 33.9235 4.69616 39.1938 5.31007 41.927L5.3164 41.9252Z" fill="url(#paint7_radial_3_11)"/>
<path d="M52.3908 28.5307C53.6701 29.7473 54.7658 31.1325 55.6457 32.6453C55.8383 32.7863 56.0182 32.9264 56.171 33.0621C64.1156 40.1533 59.953 50.1774 59.6428 50.8865C66.0965 45.7379 70.2212 38.1222 68.9825 30.2606C65.0188 20.6917 58.2957 16.831 52.8167 8.43525C52.5391 8.01065 52.2615 7.58517 51.9912 7.13606C51.8366 6.87955 51.7127 6.64842 51.6051 6.43569C51.3775 6.00894 51.2022 5.55795 51.0825 5.09185C51.0827 5.07034 51.0747 5.04953 51.06 5.03338C51.0453 5.01723 51.025 5.00688 51.003 5.0043C50.9814 4.99857 50.9586 4.99857 50.937 5.0043C50.9325 5.0043 50.9252 5.01218 50.9198 5.01393C50.9144 5.01568 50.9026 5.02356 50.8945 5.02706C49.5392 5.64952 41.5006 17.9752 52.3953 28.5158L52.3908 28.5307Z" fill="url(#paint8_radial_3_11)"/>
<path d="M56.1701 33.0656C56.0173 32.9299 55.8373 32.7898 55.6448 32.6489C55.5733 32.5972 55.5028 32.5456 55.4269 32.4939C52.962 30.8408 49.951 30.1329 46.9778 30.5075C59.5813 36.6095 56.1999 57.6206 38.733 56.8327C37.1778 56.7708 35.6409 56.4837 34.1735 55.9809C33.8305 55.8566 33.4876 55.7206 33.1446 55.5729C32.9466 55.4854 32.7486 55.3978 32.5533 55.2998L32.5777 55.3147C35.0134 56.9246 47.0438 60.8581 59.6202 50.9373L59.6401 50.8936C59.9538 50.1844 64.1165 40.1604 56.1682 33.0691L56.1701 33.0656Z" fill="url(#paint9_radial_3_11)"/>
<path d="M24.2995 44.184C24.2995 44.184 25.917 38.3473 35.8814 38.3473C36.9582 38.3473 40.0404 35.4363 40.0955 34.5924C35.8112 36.095 31.0897 35.9153 26.9404 34.0916C24.9274 33.103 22.6865 32.63 20.4312 32.7177C18.1759 32.8053 15.9813 33.4507 14.0566 34.5924C14.787 36.1222 15.96 37.414 17.4333 38.3113C18.9066 39.2087 20.617 39.6731 22.3574 39.6482C21.7082 45.196 24.7371 51.6596 32.0677 55.0564C32.2314 55.1325 32.3851 55.2148 32.5533 55.2875C28.274 53.147 24.7407 49.0988 24.2995 44.1866V44.184Z" fill="url(#paint10_radial_3_11)"/>
<path d="M72.4628 28.5044C70.9402 24.957 67.8517 21.1269 65.4331 19.9161C67.1578 23.15 68.3549 26.623 68.9818 30.2116L68.9882 30.2685C65.0263 20.7084 58.3104 16.8476 52.8223 8.45191C52.5448 8.02731 52.2672 7.60183 51.9969 7.15272C51.8423 6.89621 51.7184 6.66509 51.6108 6.45235C51.3832 6.02561 51.2078 5.57461 51.0882 5.10851C51.0884 5.087 51.0804 5.06619 51.0657 5.05004C51.051 5.0339 51.0307 5.02355 51.0087 5.02097C50.987 5.01523 50.9643 5.01523 50.9427 5.02097C50.9381 5.02097 50.9309 5.02884 50.9255 5.0306C50.92 5.03235 50.9083 5.04023 50.9002 5.04373L50.9137 5.02097C42.112 10.0111 39.1239 19.2473 38.8526 23.8697C39.2613 23.8426 39.6663 23.8093 40.0841 23.8093C43.2068 23.8152 46.2722 24.6215 48.9687 26.1465C51.6653 27.6714 53.8967 29.8606 55.4362 32.4913C52.9714 30.8382 49.9604 30.1303 46.9871 30.5049C59.5907 36.6068 56.2092 57.618 38.7423 56.8301C37.1871 56.7682 35.6502 56.481 34.1828 55.9783C33.8398 55.8539 33.4969 55.7179 33.1539 55.5703C32.9559 55.4827 32.7579 55.3952 32.5626 55.2971L32.587 55.312C32.417 55.2332 32.2471 55.1512 32.0771 55.066C32.2407 55.1422 32.3944 55.2245 32.5626 55.2971C28.2834 53.1558 24.75 49.1076 24.3088 44.1963C24.3088 44.1963 25.9263 38.3595 35.8907 38.3595C36.9675 38.3595 40.0497 35.4486 40.1048 34.6047C40.0913 34.3289 33.9929 31.9783 31.6151 29.7108C30.3448 28.4983 29.7417 27.9144 29.2074 27.4758C28.9186 27.2389 28.6168 27.0174 28.3032 26.8122C27.5049 24.106 27.4709 21.2421 28.2047 18.5189C24.9723 20.035 22.1002 22.1844 19.7701 24.831H19.7538C18.3651 23.1264 18.4627 17.506 18.5423 16.332C18.1314 16.4918 17.7392 16.6935 17.3723 16.9334C16.1463 17.7806 15.0003 18.7313 13.9475 19.7743C12.7478 20.9521 11.6521 22.2251 10.6718 23.5799C8.4192 26.6717 6.8213 30.1641 5.97034 33.857L5.92332 34.0811C5.85732 34.3797 5.56167 35.896 5.51918 36.2216C5.24875 37.7869 5.07605 39.3664 5.00201 40.9518V41.1269C5.0175 49.6176 8.3198 57.7942 14.257 64.0426C20.1942 70.2909 28.3349 74.157 37.072 74.8775C45.8091 75.5981 54.5078 73.1208 61.4508 67.9347C68.3938 62.7486 73.0766 55.2306 74.5748 46.8647C74.6336 46.4269 74.6815 45.9936 74.7339 45.5515C75.4557 39.7751 74.6743 33.9156 72.4609 28.5062L72.4628 28.5044Z" fill="url(#paint11_linear_3_11)"/>
<defs>
<linearGradient id="paint0_linear_3_11" x1="67.8244" y1="15.8591" x2="11.4586" y2="72.0231" gradientUnits="userSpaceOnUse">
<stop offset="0.048" stop-color="#FFF44F"/>
<stop offset="0.111" stop-color="#FFE847"/>
<stop offset="0.225" stop-color="#FFC830"/>
<stop offset="0.368" stop-color="#FF980E"/>
<stop offset="0.401" stop-color="#FF8B16"/>
<stop offset="0.462" stop-color="#FF672A"/>
<stop offset="0.534" stop-color="#FF3647"/>
<stop offset="0.705" stop-color="#E31587"/>
</linearGradient>
<radialGradient id="paint1_radial_3_11" cx="0" cy="0" r="1" gradientUnits="userSpaceOnUse" gradientTransform="translate(65.573 12.8948) scale(73.0537 70.7375)">
<stop offset="0.129" stop-color="#FFBD4F"/>
<stop offset="0.186" stop-color="#FFAC31"/>
<stop offset="0.247" stop-color="#FF9D17"/>
<stop offset="0.283" stop-color="#FF980E"/>
<stop offset="0.403" stop-color="#FF563B"/>
<stop offset="0.467" stop-color="#FF3750"/>
<stop offset="0.71" stop-color="#F5156C"/>
<stop offset="0.782" stop-color="#EB0878"/>
<stop offset="0.86" stop-color="#E50080"/>
</radialGradient>
<radialGradient id="paint2_radial_3_11" cx="0" cy="0" r="1" gradientUnits="userSpaceOnUse" gradientTransform="translate(38.4491 41.7852) scale(73.0537 70.7375)">
<stop offset="0.3" stop-color="#960E18"/>
<stop offset="0.351" stop-color="#B11927" stop-opacity="0.74"/>
<stop offset="0.435" stop-color="#DB293D" stop-opacity="0.343"/>
<stop offset="0.497" stop-color="#F5334B" stop-opacity="0.094"/>
<stop offset="0.53" stop-color="#FF3750" stop-opacity="0"/>
</radialGradient>
<radialGradient id="paint3_radial_3_11" cx="0" cy="0" r="1" gradientUnits="userSpaceOnUse" gradientTransform="translate(47.4904 -2.86353) scale(52.9187 51.2409)">
<stop offset="0.132" stop-color="#FFF44F"/>
<stop offset="0.252" stop-color="#FFDC3E"/>
<stop offset="0.506" stop-color="#FF9D12"/>
<stop offset="0.526" stop-color="#FF980E"/>
</radialGradient>
<radialGradient id="paint4_radial_3_11" cx="0" cy="0" r="1" gradientUnits="userSpaceOnUse" gradientTransform="translate(30.312 60.1699) scale(34.7819 33.6791)">
<stop offset="0.353" stop-color="#3A8EE6"/>
<stop offset="0.472" stop-color="#5C79F0"/>
<stop offset="0.669" stop-color="#9059FF"/>
<stop offset="1" stop-color="#C139E6"/>
</radialGradient>
<radialGradient id="paint5_radial_3_11" cx="0" cy="0" r="1" gradientUnits="userSpaceOnUse" gradientTransform="translate(41.9825 35.713) rotate(-13.1759) scale(18.4125 20.9452)">
<stop offset="0.206" stop-color="#9059FF" stop-opacity="0"/>
<stop offset="0.278" stop-color="#8C4FF3" stop-opacity="0.064"/>
<stop offset="0.747" stop-color="#7716A8" stop-opacity="0.45"/>
<stop offset="0.975" stop-color="#6E008B" stop-opacity="0.6"/>
</radialGradient>
<radialGradient id="paint6_radial_3_11" cx="0" cy="0" r="1" gradientUnits="userSpaceOnUse" gradientTransform="translate(37.545 10.2685) scale(25.0263 24.2329)">
<stop stop-color="#FFE226"/>
<stop offset="0.121" stop-color="#FFDB27"/>
<stop offset="0.295" stop-color="#FFC82A"/>
<stop offset="0.502" stop-color="#FFA930"/>
<stop offset="0.732" stop-color="#FF7E37"/>
<stop offset="0.792" stop-color="#FF7139"/>
</radialGradient>
<radialGradient id="paint7_radial_3_11" cx="0" cy="0" r="1" gradientUnits="userSpaceOnUse" gradientTransform="translate(57.4359 -5.48992) scale(106.778 103.392)">
<stop offset="0.113" stop-color="#FFF44F"/>
<stop offset="0.456" stop-color="#FF980E"/>
<stop offset="0.622" stop-color="#FF5634"/>
<stop offset="0.716" stop-color="#FF3647"/>
<stop offset="0.904" stop-color="#E31587"/>
</radialGradient>
<radialGradient id="paint8_radial_3_11" cx="0" cy="0" r="1" gradientUnits="userSpaceOnUse" gradientTransform="translate(48.5609 0.242653) rotate(83.7803) scale(75.7952 51.3348)">
<stop stop-color="#FFF44F"/>
<stop offset="0.06" stop-color="#FFE847"/>
<stop offset="0.168" stop-color="#FFC830"/>
<stop offset="0.304" stop-color="#FF980E"/>
<stop offset="0.356" stop-color="#FF8B16"/>
<stop offset="0.455" stop-color="#FF672A"/>
<stop offset="0.57" stop-color="#FF3647"/>
<stop offset="0.737" stop-color="#E31587"/>
</radialGradient>
<radialGradient id="paint9_radial_3_11" cx="0" cy="0" r="1" gradientUnits="userSpaceOnUse" gradientTransform="translate(37.545 19.0232) scale(66.6524 64.5392)">
<stop offset="0.137" stop-color="#FFF44F"/>
<stop offset="0.48" stop-color="#FF980E"/>
<stop offset="0.592" stop-color="#FF5634"/>
<stop offset="0.655" stop-color="#FF3647"/>
<stop offset="0.904" stop-color="#E31587"/>
</radialGradient>
<radialGradient id="paint10_radial_3_11" cx="0" cy="0" r="1" gradientUnits="userSpaceOnUse" gradientTransform="translate(54.7234 22.525) scale(72.9542 70.6412)">
<stop offset="0.094" stop-color="#FFF44F"/>
<stop offset="0.231" stop-color="#FFE141"/>
<stop offset="0.509" stop-color="#FFAF1E"/>
<stop offset="0.626" stop-color="#FF980E"/>
</radialGradient>
<linearGradient id="paint11_linear_3_11" x1="67.1193" y1="15.5702" x2="19.2216" y2="65.0454" gradientUnits="userSpaceOnUse">
<stop offset="0.167" stop-color="#FFF44F" stop-opacity="0.8"/>
<stop offset="0.266" stop-color="#FFF44F" stop-opacity="0.634"/>
<stop offset="0.489" stop-color="#FFF44F" stop-opacity="0.217"/>
<stop offset="0.6" stop-color="#FFF44F" stop-opacity="0"/>
</linearGradient>
</defs>
</svg>
