<svg width="255" height="80" viewBox="0 0 255 80" fill="none" xmlns="http://www.w3.org/2000/svg">
<rect x="0.5" y="0.5" width="254" height="79" rx="39.5" fill="#182025" style="mix-blend-mode:lighten"/>
<path d="M91.4609 33.8555L86.8203 48H83.082L89.4219 30.9375H91.8008L91.4609 33.8555ZM95.3164 48L90.6641 33.8555L90.2891 30.9375H92.6914L99.0664 48H95.3164ZM95.1055 41.6484V44.4023H86.0938V41.6484H95.1055ZM107.926 45.2344V30H111.324V48H108.266L107.926 45.2344ZM99.9102 41.8125V41.5664C99.9102 40.5977 100.02 39.7188 100.238 38.9297C100.457 38.1328 100.777 37.4492 101.199 36.8789C101.621 36.3086 102.141 35.8672 102.758 35.5547C103.375 35.2422 104.078 35.0859 104.867 35.0859C105.609 35.0859 106.258 35.2422 106.812 35.5547C107.375 35.8672 107.852 36.3125 108.242 36.8906C108.641 37.4609 108.961 38.1367 109.203 38.918C109.445 39.6914 109.621 40.5391 109.73 41.4609V42C109.621 42.8828 109.445 43.7031 109.203 44.4609C108.961 45.2188 108.641 45.8828 108.242 46.4531C107.852 47.0156 107.375 47.4531 106.812 47.7656C106.25 48.0781 105.594 48.2344 104.844 48.2344C104.055 48.2344 103.352 48.0742 102.734 47.7539C102.125 47.4336 101.609 46.9844 101.188 46.4062C100.773 45.8281 100.457 45.1484 100.238 44.3672C100.02 43.5859 99.9102 42.7344 99.9102 41.8125ZM103.285 41.5664V41.8125C103.285 42.3359 103.324 42.8242 103.402 43.2773C103.488 43.7305 103.625 44.1328 103.812 44.4844C104.008 44.8281 104.258 45.0977 104.562 45.293C104.875 45.4805 105.254 45.5742 105.699 45.5742C106.277 45.5742 106.754 45.4453 107.129 45.1875C107.504 44.9219 107.789 44.5586 107.984 44.0977C108.188 43.6367 108.305 43.1055 108.336 42.5039V40.9688C108.312 40.4766 108.242 40.0352 108.125 39.6445C108.016 39.2461 107.852 38.9062 107.633 38.625C107.422 38.3438 107.156 38.125 106.836 37.9688C106.523 37.8125 106.152 37.7344 105.723 37.7344C105.285 37.7344 104.91 37.8359 104.598 38.0391C104.285 38.2344 104.031 38.5039 103.836 38.8477C103.648 39.1914 103.508 39.5977 103.414 40.0664C103.328 40.5273 103.285 41.0273 103.285 41.5664ZM121.449 45.2344V30H124.848V48H121.789L121.449 45.2344ZM113.434 41.8125V41.5664C113.434 40.5977 113.543 39.7188 113.762 38.9297C113.98 38.1328 114.301 37.4492 114.723 36.8789C115.145 36.3086 115.664 35.8672 116.281 35.5547C116.898 35.2422 117.602 35.0859 118.391 35.0859C119.133 35.0859 119.781 35.2422 120.336 35.5547C120.898 35.8672 121.375 36.3125 121.766 36.8906C122.164 37.4609 122.484 38.1367 122.727 38.918C122.969 39.6914 123.145 40.5391 123.254 41.4609V42C123.145 42.8828 122.969 43.7031 122.727 44.4609C122.484 45.2188 122.164 45.8828 121.766 46.4531C121.375 47.0156 120.898 47.4531 120.336 47.7656C119.773 48.0781 119.117 48.2344 118.367 48.2344C117.578 48.2344 116.875 48.0742 116.258 47.7539C115.648 47.4336 115.133 46.9844 114.711 46.4062C114.297 45.8281 113.98 45.1484 113.762 44.3672C113.543 43.5859 113.434 42.7344 113.434 41.8125ZM116.809 41.5664V41.8125C116.809 42.3359 116.848 42.8242 116.926 43.2773C117.012 43.7305 117.148 44.1328 117.336 44.4844C117.531 44.8281 117.781 45.0977 118.086 45.293C118.398 45.4805 118.777 45.5742 119.223 45.5742C119.801 45.5742 120.277 45.4453 120.652 45.1875C121.027 44.9219 121.312 44.5586 121.508 44.0977C121.711 43.6367 121.828 43.1055 121.859 42.5039V40.9688C121.836 40.4766 121.766 40.0352 121.648 39.6445C121.539 39.2461 121.375 38.9062 121.156 38.625C120.945 38.3438 120.68 38.125 120.359 37.9688C120.047 37.8125 119.676 37.7344 119.246 37.7344C118.809 37.7344 118.434 37.8359 118.121 38.0391C117.809 38.2344 117.555 38.5039 117.359 38.8477C117.172 39.1914 117.031 39.5977 116.938 40.0664C116.852 40.5273 116.809 41.0273 116.809 41.5664ZM139.672 35.3203V37.7109H132.289V35.3203H139.672ZM134.117 32.1914H137.492V44.1797C137.492 44.5469 137.539 44.8281 137.633 45.0234C137.734 45.2188 137.883 45.3555 138.078 45.4336C138.273 45.5039 138.52 45.5391 138.816 45.5391C139.027 45.5391 139.215 45.5312 139.379 45.5156C139.551 45.4922 139.695 45.4688 139.812 45.4453L139.824 47.9297C139.535 48.0234 139.223 48.0977 138.887 48.1523C138.551 48.207 138.18 48.2344 137.773 48.2344C137.031 48.2344 136.383 48.1133 135.828 47.8711C135.281 47.6211 134.859 47.2227 134.562 46.6758C134.266 46.1289 134.117 45.4102 134.117 44.5195V32.1914ZM140.75 41.7891V41.543C140.75 40.6133 140.883 39.7578 141.148 38.9766C141.414 38.1875 141.801 37.5039 142.309 36.9258C142.816 36.3477 143.441 35.8984 144.184 35.5781C144.926 35.25 145.777 35.0859 146.738 35.0859C147.699 35.0859 148.555 35.25 149.305 35.5781C150.055 35.8984 150.684 36.3477 151.191 36.9258C151.707 37.5039 152.098 38.1875 152.363 38.9766C152.629 39.7578 152.762 40.6133 152.762 41.543V41.7891C152.762 42.7109 152.629 43.5664 152.363 44.3555C152.098 45.1367 151.707 45.8203 151.191 46.4062C150.684 46.9844 150.059 47.4336 149.316 47.7539C148.574 48.0742 147.723 48.2344 146.762 48.2344C145.801 48.2344 144.945 48.0742 144.195 47.7539C143.453 47.4336 142.824 46.9844 142.309 46.4062C141.801 45.8203 141.414 45.1367 141.148 44.3555C140.883 43.5664 140.75 42.7109 140.75 41.7891ZM144.125 41.543V41.7891C144.125 42.3203 144.172 42.8164 144.266 43.2773C144.359 43.7383 144.508 44.1445 144.711 44.4961C144.922 44.8398 145.195 45.1094 145.531 45.3047C145.867 45.5 146.277 45.5977 146.762 45.5977C147.23 45.5977 147.633 45.5 147.969 45.3047C148.305 45.1094 148.574 44.8398 148.777 44.4961C148.98 44.1445 149.129 43.7383 149.223 43.2773C149.324 42.8164 149.375 42.3203 149.375 41.7891V41.543C149.375 41.0273 149.324 40.543 149.223 40.0898C149.129 39.6289 148.977 39.2227 148.766 38.8711C148.562 38.5117 148.293 38.2305 147.957 38.0273C147.621 37.8242 147.215 37.7227 146.738 37.7227C146.262 37.7227 145.855 37.8242 145.52 38.0273C145.191 38.2305 144.922 38.5117 144.711 38.8711C144.508 39.2227 144.359 39.6289 144.266 40.0898C144.172 40.543 144.125 41.0273 144.125 41.543ZM164.539 30.9375V48H161.023V30.9375H164.539ZM171.336 38.2266V40.9688H163.578V38.2266H171.336ZM172.156 30.9375V33.6914H163.578V30.9375H172.156ZM177.547 35.3203V48H174.16V35.3203H177.547ZM173.949 32.0156C173.949 31.5234 174.121 31.1172 174.465 30.7969C174.809 30.4766 175.27 30.3164 175.848 30.3164C176.418 30.3164 176.875 30.4766 177.219 30.7969C177.57 31.1172 177.746 31.5234 177.746 32.0156C177.746 32.5078 177.57 32.9141 177.219 33.2344C176.875 33.5547 176.418 33.7148 175.848 33.7148C175.27 33.7148 174.809 33.5547 174.465 33.2344C174.121 32.9141 173.949 32.5078 173.949 32.0156ZM183.711 38.0859V48H180.336V35.3203H183.512L183.711 38.0859ZM187.531 35.2383L187.473 38.3672C187.309 38.3438 187.109 38.3242 186.875 38.3086C186.648 38.2852 186.441 38.2734 186.254 38.2734C185.777 38.2734 185.363 38.3359 185.012 38.4609C184.668 38.5781 184.379 38.7539 184.145 38.9883C183.918 39.2227 183.746 39.5078 183.629 39.8438C183.52 40.1797 183.457 40.5625 183.441 40.9922L182.762 40.7812C182.762 39.9609 182.844 39.207 183.008 38.5195C183.172 37.8242 183.41 37.2188 183.723 36.7031C184.043 36.1875 184.434 35.7891 184.895 35.5078C185.355 35.2266 185.883 35.0859 186.477 35.0859C186.664 35.0859 186.855 35.1016 187.051 35.1328C187.246 35.1562 187.406 35.1914 187.531 35.2383ZM194.727 48.2344C193.742 48.2344 192.859 48.0781 192.078 47.7656C191.297 47.4453 190.633 47.0039 190.086 46.4414C189.547 45.8789 189.133 45.2266 188.844 44.4844C188.555 43.7344 188.41 42.9375 188.41 42.0938V41.625C188.41 40.6641 188.547 39.7852 188.82 38.9883C189.094 38.1914 189.484 37.5 189.992 36.9141C190.508 36.3281 191.133 35.8789 191.867 35.5664C192.602 35.2461 193.43 35.0859 194.352 35.0859C195.25 35.0859 196.047 35.2344 196.742 35.5312C197.438 35.8281 198.02 36.25 198.488 36.7969C198.965 37.3438 199.324 38 199.566 38.7656C199.809 39.5234 199.93 40.3672 199.93 41.2969V42.7031H189.852V40.4531H196.613V40.1953C196.613 39.7266 196.527 39.3086 196.355 38.9414C196.191 38.5664 195.941 38.2695 195.605 38.0508C195.27 37.832 194.84 37.7227 194.316 37.7227C193.871 37.7227 193.488 37.8203 193.168 38.0156C192.848 38.2109 192.586 38.4844 192.383 38.8359C192.188 39.1875 192.039 39.6016 191.938 40.0781C191.844 40.5469 191.797 41.0625 191.797 41.625V42.0938C191.797 42.6016 191.867 43.0703 192.008 43.5C192.156 43.9297 192.363 44.3008 192.629 44.6133C192.902 44.9258 193.23 45.168 193.613 45.3398C194.004 45.5117 194.445 45.5977 194.938 45.5977C195.547 45.5977 196.113 45.4805 196.637 45.2461C197.168 45.0039 197.625 44.6406 198.008 44.1562L199.648 45.9375C199.383 46.3203 199.02 46.6875 198.559 47.0391C198.105 47.3906 197.559 47.6797 196.918 47.9062C196.277 48.125 195.547 48.2344 194.727 48.2344ZM206.152 48H202.754V34.1953C202.754 33.2344 202.941 32.4258 203.316 31.7695C203.699 31.1055 204.234 30.6055 204.922 30.2695C205.617 29.9258 206.441 29.7539 207.395 29.7539C207.707 29.7539 208.008 29.7773 208.297 29.8242C208.586 29.8633 208.867 29.9141 209.141 29.9766L209.105 32.5195C208.957 32.4805 208.801 32.4531 208.637 32.4375C208.473 32.4219 208.281 32.4141 208.062 32.4141C207.656 32.4141 207.309 32.4844 207.02 32.625C206.738 32.7578 206.523 32.957 206.375 33.2227C206.227 33.4883 206.152 33.8125 206.152 34.1953V48ZM208.684 35.3203V37.7109H200.867V35.3203H208.684ZM209.914 41.7891V41.543C209.914 40.6133 210.047 39.7578 210.312 38.9766C210.578 38.1875 210.965 37.5039 211.473 36.9258C211.98 36.3477 212.605 35.8984 213.348 35.5781C214.09 35.25 214.941 35.0859 215.902 35.0859C216.863 35.0859 217.719 35.25 218.469 35.5781C219.219 35.8984 219.848 36.3477 220.355 36.9258C220.871 37.5039 221.262 38.1875 221.527 38.9766C221.793 39.7578 221.926 40.6133 221.926 41.543V41.7891C221.926 42.7109 221.793 43.5664 221.527 44.3555C221.262 45.1367 220.871 45.8203 220.355 46.4062C219.848 46.9844 219.223 47.4336 218.48 47.7539C217.738 48.0742 216.887 48.2344 215.926 48.2344C214.965 48.2344 214.109 48.0742 213.359 47.7539C212.617 47.4336 211.988 46.9844 211.473 46.4062C210.965 45.8203 210.578 45.1367 210.312 44.3555C210.047 43.5664 209.914 42.7109 209.914 41.7891ZM213.289 41.543V41.7891C213.289 42.3203 213.336 42.8164 213.43 43.2773C213.523 43.7383 213.672 44.1445 213.875 44.4961C214.086 44.8398 214.359 45.1094 214.695 45.3047C215.031 45.5 215.441 45.5977 215.926 45.5977C216.395 45.5977 216.797 45.5 217.133 45.3047C217.469 45.1094 217.738 44.8398 217.941 44.4961C218.145 44.1445 218.293 43.7383 218.387 43.2773C218.488 42.8164 218.539 42.3203 218.539 41.7891V41.543C218.539 41.0273 218.488 40.543 218.387 40.0898C218.293 39.6289 218.141 39.2227 217.93 38.8711C217.727 38.5117 217.457 38.2305 217.121 38.0273C216.785 37.8242 216.379 37.7227 215.902 37.7227C215.426 37.7227 215.02 37.8242 214.684 38.0273C214.355 38.2305 214.086 38.5117 213.875 38.8711C213.672 39.2227 213.523 39.6289 213.43 40.0898C213.336 40.543 213.289 41.0273 213.289 41.543ZM226.461 35.3203L228.559 39.1758L230.715 35.3203H234.312L230.727 41.5195L234.477 48H230.867L228.582 43.9219L226.297 48H222.688L226.438 41.5195L222.852 35.3203H226.461Z" fill="white"/>
<path d="M70.6075 29.1613C69.172 25.8166 66.26 22.2053 63.9796 21.0637C65.6057 24.1128 66.7344 27.3873 67.3255 30.7709L67.3315 30.8245C63.596 21.8108 57.2639 18.1706 52.0894 10.2546C51.8277 9.8543 51.566 9.45313 51.3111 9.02968C51.1654 8.78783 51.0486 8.56992 50.9471 8.36933C50.7326 7.96698 50.5672 7.54175 50.4544 7.10229C50.4546 7.08201 50.447 7.06238 50.4332 7.04716C50.4193 7.03194 50.4002 7.02218 50.3794 7.01974C50.359 7.01433 50.3375 7.01433 50.3172 7.01974C50.3129 7.01974 50.3061 7.02717 50.301 7.02882C50.2959 7.03047 50.2848 7.0379 50.2771 7.0412L50.2899 7.01974C41.9911 11.7247 39.1737 20.4331 38.918 24.7914C35.6027 25.0115 32.4329 26.1941 29.8222 28.1848C29.5499 27.9615 29.2653 27.7526 28.9697 27.5591C28.217 25.0076 28.1849 22.3073 28.8768 19.7397C25.8291 21.1692 23.1211 23.1958 20.9242 25.6911H20.9088C19.5994 24.084 19.6915 18.7847 19.7665 17.6778C19.3792 17.8285 19.0094 18.0186 18.6634 18.2449C17.5075 19.0437 16.4269 19.94 15.4343 20.9234C14.3031 22.0339 13.27 23.2341 12.3458 24.5116V24.5166V24.5108C10.2219 27.4259 8.71533 30.7195 7.91299 34.2014L7.86866 34.4127C7.80643 34.6942 7.58223 36.104 7.54387 36.4103C7.54387 36.4342 7.53876 36.4565 7.5362 36.4804C7.247 37.936 7.06779 39.41 7 40.8908V41.0559C7.0146 49.0614 10.1282 56.7708 15.7261 62.6621C21.3241 68.5534 28.9996 72.1985 37.2374 72.8779C45.4753 73.5573 53.6769 71.2216 60.2231 66.3318C66.7694 61.4421 71.1846 54.3536 72.5972 46.4658C72.6526 46.0531 72.6978 45.6445 72.7472 45.2276C73.4278 39.7813 72.691 34.2566 70.6041 29.1563L70.6075 29.1613ZM32.5279 54.2051C32.6822 54.2769 32.8271 54.3545 32.9857 54.423L33.0087 54.437C32.8484 54.3627 32.6882 54.2854 32.5279 54.2051ZM67.3324 30.8336V30.8031L67.3383 30.8369L67.3324 30.8336Z" fill="url(#paint0_linear_3_177)"/>
<path d="M70.6075 29.1613C69.1719 25.8166 66.2599 22.2053 63.9796 21.0637C65.6057 24.1128 66.7343 27.3873 67.3255 30.7709V30.8014L67.3315 30.8353C69.8785 37.892 69.5101 45.6288 66.3034 52.4287C62.5167 60.296 53.3544 68.3597 39.0074 67.9634C23.5096 67.5383 9.85314 56.3991 7.30427 41.8136C6.83968 39.5131 7.30427 38.3467 7.53785 36.4771C7.21924 37.9294 7.04144 39.4073 7.00676 40.8916V41.0567C7.02136 49.0622 10.135 56.7716 15.7329 62.6629C21.3308 68.5542 29.0063 72.1993 37.2442 72.8787C45.482 73.5581 53.6836 71.2224 60.2299 66.3326C66.7761 61.4429 71.1914 54.3544 72.604 46.4666C72.6594 46.0539 72.7045 45.6453 72.754 45.2284C73.4345 39.7821 72.6978 34.2575 70.6109 29.1571L70.6075 29.1613Z" fill="url(#paint1_radial_3_177)"/>
<path d="M70.6075 29.1613C69.1719 25.8166 66.2599 22.2053 63.9796 21.0637C65.6057 24.1128 66.7343 27.3873 67.3255 30.7709V30.8014L67.3315 30.8353C69.8785 37.892 69.5101 45.6288 66.3034 52.4287C62.5167 60.296 53.3544 68.3597 39.0074 67.9634C23.5096 67.5383 9.85314 56.3991 7.30427 41.8136C6.83968 39.5131 7.30427 38.3467 7.53785 36.4771C7.21924 37.9294 7.04144 39.4073 7.00676 40.8916V41.0567C7.02136 49.0622 10.135 56.7716 15.7329 62.6629C21.3308 68.5542 29.0063 72.1993 37.2442 72.8787C45.482 73.5581 53.6836 71.2224 60.2299 66.3326C66.7761 61.4429 71.1914 54.3544 72.604 46.4666C72.6594 46.0539 72.7045 45.6453 72.754 45.2284C73.4345 39.7821 72.6978 34.2575 70.6109 29.1571L70.6075 29.1613Z" fill="url(#paint2_radial_3_177)"/>
<path d="M54.547 32.917C54.6186 32.9657 54.6851 33.0144 54.7525 33.0631C53.9226 31.6381 52.8895 30.3335 51.6836 29.1877C41.4114 19.2411 48.9924 7.62721 50.2702 7.0329L50.283 7.01474C41.9843 11.7197 39.1669 20.4281 38.9111 24.7864C39.2964 24.7608 39.6783 24.7295 40.0722 24.7295C43.0165 24.735 45.9067 25.4953 48.4492 26.9331C50.9916 28.3709 53.0955 30.4349 54.547 32.9153V32.917Z" fill="url(#paint3_radial_3_177)"/>
<path d="M40.0892 34.9064C40.0347 35.7021 37.1312 38.4467 36.1159 38.4467C26.7217 38.4467 25.1958 43.9498 25.1958 43.9498C25.6118 48.5839 28.9466 52.4023 32.978 54.4164C33.1621 54.5088 33.3488 54.5922 33.5355 54.6739C33.8588 54.8126 34.1822 54.9408 34.5056 55.0586C35.8891 55.5327 37.3382 55.8034 38.8046 55.8617C55.2742 56.6096 58.4624 36.7941 46.5782 31.0408C49.3816 30.6876 52.2205 31.3551 54.5445 32.9137C53.093 30.4333 50.989 28.3693 48.4466 26.9315C45.9042 25.4937 43.0139 24.7334 40.0696 24.7279C39.6775 24.7279 39.2939 24.7592 38.9086 24.7848C35.5933 25.0049 32.4235 26.1875 29.8128 28.1782C30.3166 28.5909 30.8852 29.1423 32.0829 30.2855C34.3248 32.4243 40.0747 34.6397 40.0875 34.8997L40.0892 34.9064Z" fill="url(#paint4_radial_3_177)"/>
<path d="M40.0892 34.9064C40.0347 35.7021 37.1312 38.4467 36.1159 38.4467C26.7217 38.4467 25.1958 43.9498 25.1958 43.9498C25.6118 48.5839 28.9466 52.4023 32.978 54.4164C33.1621 54.5088 33.3488 54.5922 33.5355 54.6739C33.8588 54.8126 34.1822 54.9408 34.5056 55.0586C35.8891 55.5327 37.3382 55.8034 38.8046 55.8617C55.2742 56.6096 58.4624 36.7941 46.5782 31.0408C49.3816 30.6876 52.2205 31.3551 54.5445 32.9137C53.093 30.4333 50.989 28.3693 48.4466 26.9315C45.9042 25.4937 43.0139 24.7334 40.0696 24.7279C39.6775 24.7279 39.2939 24.7592 38.9086 24.7848C35.5933 25.0049 32.4235 26.1875 29.8128 28.1782C30.3166 28.5909 30.8852 29.1423 32.0829 30.2855C34.3248 32.4243 40.0747 34.6397 40.0875 34.8997L40.0892 34.9064Z" fill="url(#paint5_radial_3_177)"/>
<path d="M28.2741 27.1225C28.5417 27.2875 28.7625 27.4312 28.956 27.5608C28.2033 25.0093 28.1712 22.309 28.8631 19.7414C25.8154 21.1709 23.1074 23.1974 20.9105 25.6928C21.0716 25.6887 25.8642 25.6053 28.2741 27.1225Z" fill="url(#paint6_radial_3_177)"/>
<path d="M7.29831 41.8152C9.84803 56.4007 23.5037 67.5441 39.0015 67.9651C53.3485 68.358 62.5125 60.2935 66.2974 52.4304C69.5041 45.6305 69.8725 37.8936 67.3255 30.8369V30.8064C67.3255 30.7824 67.3204 30.7684 67.3255 30.7758L67.3315 30.8295C68.5036 38.2394 64.6112 45.415 58.5255 50.2768L58.5067 50.3181C46.649 59.6703 35.3026 55.9591 33.0095 54.4453C32.8492 54.371 32.689 54.2936 32.5287 54.2133C25.6161 51.0139 22.7595 44.9189 23.3732 39.6856C21.7323 39.709 20.1196 39.2712 18.7305 38.4251C17.3414 37.579 16.2355 36.361 15.5468 34.9187C17.3615 33.8423 19.4306 33.2338 21.5571 33.1511C23.6835 33.0685 25.7964 33.5144 27.6944 34.4465C31.6066 36.166 36.0582 36.3355 40.0978 34.9187C40.085 34.6587 34.3351 32.4424 32.0931 30.3045C30.8954 29.1613 30.3268 28.6107 29.823 28.1972C29.5507 27.9738 29.2661 27.765 28.9705 27.5715C28.7745 27.4419 28.5537 27.3016 28.2886 27.1332C25.8786 25.616 21.0861 25.6994 20.9275 25.7035H20.9122C19.6028 24.0964 19.6949 18.7971 19.7699 17.6902C19.3825 17.8409 19.0127 18.031 18.6668 18.2572C17.5109 19.056 16.4303 19.9524 15.4376 20.9358C14.3024 22.0431 13.2651 23.2406 12.3364 24.5157C10.2125 27.4308 8.7059 30.7236 7.90356 34.2055C7.88736 34.2707 6.71352 39.2399 7.29234 41.8169L7.29831 41.8152Z" fill="url(#paint7_radial_3_177)"/>
<path d="M51.6828 29.186C52.8889 30.3332 53.9221 31.6392 54.7516 33.0656C54.9332 33.1985 55.1029 33.3306 55.2469 33.4585C62.7375 40.1446 58.8128 49.5958 58.5204 50.2644C64.6053 45.41 68.4942 38.2295 67.3263 30.8171C63.5891 21.7951 57.2502 18.1549 52.0843 10.2389C51.8226 9.83861 51.5609 9.43745 51.306 9.014C51.1602 8.77214 51.0434 8.55423 50.942 8.35365C50.7274 7.95129 50.562 7.52607 50.4492 7.0866C50.4494 7.06632 50.4418 7.0467 50.428 7.03147C50.4142 7.01625 50.395 7.00649 50.3742 7.00406C50.3539 6.99865 50.3324 6.99865 50.312 7.00406C50.3077 7.00406 50.3009 7.01149 50.2958 7.01314C50.2907 7.01479 50.2796 7.02222 50.2719 7.02552C48.9941 7.6124 41.4148 19.2337 51.687 29.172L51.6828 29.186Z" fill="url(#paint8_radial_3_177)"/>
<path d="M55.246 33.4618C55.102 33.3339 54.9323 33.2018 54.7508 33.0689C54.6834 33.0202 54.6169 32.9715 54.5453 32.9228C52.2214 31.3642 49.3824 30.6967 46.579 31.0499C58.4624 36.8032 55.2742 56.6137 38.8054 55.8708C37.339 55.8125 35.89 55.5417 34.5064 55.0677C34.1831 54.9505 33.8597 54.8223 33.5363 54.683C33.3496 54.6005 33.1629 54.5179 32.9788 54.4255L33.0018 54.4395C35.2984 55.9575 46.6413 59.6662 58.4991 50.3123L58.5178 50.2711C58.8136 49.6025 62.7384 40.1512 55.2443 33.4651L55.246 33.4618Z" fill="url(#paint9_radial_3_177)"/>
<path d="M25.1966 43.9449C25.1966 43.9449 26.7217 38.4417 36.1167 38.4417C37.132 38.4417 40.0381 35.6971 40.0901 34.9014C36.0505 36.3182 31.5989 36.1487 27.6867 34.4292C25.7887 33.4971 23.6758 33.0511 21.5494 33.1338C19.4229 33.2164 17.3538 33.825 15.5391 34.9014C16.2278 36.3437 17.3337 37.5617 18.7228 38.4078C20.1119 39.2539 21.7246 39.6917 23.3655 39.6683C22.7535 44.8991 25.6092 50.9933 32.521 54.196C32.6753 54.2678 32.8202 54.3454 32.9788 54.4139C28.9441 52.3957 25.6126 48.5789 25.1966 43.9474V43.9449Z" fill="url(#paint10_radial_3_177)"/>
<path d="M70.6077 29.1613C69.1722 25.8166 66.2602 22.2053 63.9798 21.0637C65.6059 24.1128 66.7346 27.3873 67.3257 30.7709L67.3317 30.8245C63.5962 21.8108 57.2641 18.1706 52.0896 10.2546C51.8279 9.8543 51.5662 9.45313 51.3113 9.02968C51.1656 8.78783 51.0488 8.56992 50.9473 8.36933C50.7327 7.96698 50.5674 7.54175 50.4546 7.10229C50.4547 7.08201 50.4472 7.06238 50.4334 7.04716C50.4195 7.03194 50.4004 7.02218 50.3796 7.01974C50.3592 7.01433 50.3377 7.01433 50.3174 7.01974C50.3131 7.01974 50.3063 7.02717 50.3012 7.02882C50.296 7.03047 50.285 7.0379 50.2773 7.0412L50.2901 7.01974C41.9913 11.7247 39.1739 20.4331 38.9182 24.7914C39.3035 24.7658 39.6854 24.7345 40.0792 24.7345C43.0235 24.74 45.9138 25.5003 48.4562 26.9381C50.9987 28.3759 53.1026 30.4399 54.5541 32.9203C52.2301 31.3617 49.3912 30.6942 46.5878 31.0474C58.4712 36.8007 55.283 56.6112 38.8142 55.8683C37.3478 55.81 35.8987 55.5392 34.5152 55.0652C34.1918 54.948 33.8685 54.8197 33.5451 54.6805C33.3584 54.598 33.1717 54.5154 32.9876 54.423L33.0106 54.437C32.8503 54.3627 32.6901 54.2854 32.5298 54.2051C32.6841 54.2769 32.829 54.3545 32.9876 54.423C28.9529 52.404 25.6214 48.5871 25.2054 43.9564C25.2054 43.9564 26.7305 38.4532 36.1255 38.4532C37.1408 38.4532 40.0469 35.7087 40.0989 34.9129C40.0861 34.6529 34.3362 32.4366 32.0942 30.2987C30.8965 29.1555 30.3279 28.6049 29.8241 28.1914C29.5518 27.9681 29.2672 27.7592 28.9716 27.5657C28.2189 25.0142 28.1868 22.3139 28.8787 19.7463C25.831 21.1758 23.123 23.2024 20.9261 25.6978H20.9107C19.6013 24.0906 19.6934 18.7913 19.7684 17.6844C19.381 17.8351 19.0113 18.0252 18.6653 18.2515C17.5094 19.0503 16.4288 19.9466 15.4362 20.93C14.305 22.0405 13.2719 23.2407 12.3477 24.5182C10.2238 27.4333 8.71722 30.7261 7.91488 34.208L7.87055 34.4193C7.80832 34.7008 7.52957 36.1305 7.4895 36.4375C7.23453 37.9133 7.0717 39.4026 7.00189 40.8974V41.0625C7.01649 49.068 10.1301 56.7774 15.728 62.6687C21.326 68.56 29.0015 72.2051 37.2393 72.8845C45.4772 73.5639 53.6788 71.2282 60.225 66.3384C66.7713 61.4487 71.1865 54.3602 72.5991 46.4724C72.6545 46.0597 72.6997 45.6511 72.7491 45.2342C73.4297 39.7879 72.6929 34.2633 70.606 29.1629L70.6077 29.1613Z" fill="url(#paint11_linear_3_177)"/>
<rect x="0.5" y="0.5" width="254" height="79" rx="39.5" stroke="#30363D"/>
<defs>
<linearGradient id="paint0_linear_3_177" x1="66.2344" y1="17.2386" x2="13.0895" y2="70.1932" gradientUnits="userSpaceOnUse">
<stop offset="0.048" stop-color="#FFF44F"/>
<stop offset="0.111" stop-color="#FFE847"/>
<stop offset="0.225" stop-color="#FFC830"/>
<stop offset="0.368" stop-color="#FF980E"/>
<stop offset="0.401" stop-color="#FF8B16"/>
<stop offset="0.462" stop-color="#FF672A"/>
<stop offset="0.534" stop-color="#FF3647"/>
<stop offset="0.705" stop-color="#E31587"/>
</linearGradient>
<radialGradient id="paint1_radial_3_177" cx="0" cy="0" r="1" gradientUnits="userSpaceOnUse" gradientTransform="translate(64.1117 14.4437) scale(68.8792 66.6954)">
<stop offset="0.129" stop-color="#FFBD4F"/>
<stop offset="0.186" stop-color="#FFAC31"/>
<stop offset="0.247" stop-color="#FF9D17"/>
<stop offset="0.283" stop-color="#FF980E"/>
<stop offset="0.403" stop-color="#FF563B"/>
<stop offset="0.467" stop-color="#FF3750"/>
<stop offset="0.71" stop-color="#F5156C"/>
<stop offset="0.782" stop-color="#EB0878"/>
<stop offset="0.86" stop-color="#E50080"/>
</radialGradient>
<radialGradient id="paint2_radial_3_177" cx="0" cy="0" r="1" gradientUnits="userSpaceOnUse" gradientTransform="translate(38.5377 41.6832) scale(68.8792 66.6954)">
<stop offset="0.3" stop-color="#960E18"/>
<stop offset="0.351" stop-color="#B11927" stop-opacity="0.74"/>
<stop offset="0.435" stop-color="#DB293D" stop-opacity="0.343"/>
<stop offset="0.497" stop-color="#F5334B" stop-opacity="0.094"/>
<stop offset="0.53" stop-color="#FF3750" stop-opacity="0"/>
</radialGradient>
<radialGradient id="paint3_radial_3_177" cx="0" cy="0" r="1" gradientUnits="userSpaceOnUse" gradientTransform="translate(47.0624 -0.414204) scale(49.8948 48.3129)">
<stop offset="0.132" stop-color="#FFF44F"/>
<stop offset="0.252" stop-color="#FFDC3E"/>
<stop offset="0.506" stop-color="#FF9D12"/>
<stop offset="0.526" stop-color="#FF980E"/>
</radialGradient>
<radialGradient id="paint4_radial_3_177" cx="0" cy="0" r="1" gradientUnits="userSpaceOnUse" gradientTransform="translate(30.8655 59.0174) scale(32.7943 31.7546)">
<stop offset="0.353" stop-color="#3A8EE6"/>
<stop offset="0.472" stop-color="#5C79F0"/>
<stop offset="0.669" stop-color="#9059FF"/>
<stop offset="1" stop-color="#C139E6"/>
</radialGradient>
<radialGradient id="paint5_radial_3_177" cx="0" cy="0" r="1" gradientUnits="userSpaceOnUse" gradientTransform="translate(41.8692 35.958) rotate(-13.1759) scale(17.3604 19.7483)">
<stop offset="0.206" stop-color="#9059FF" stop-opacity="0"/>
<stop offset="0.278" stop-color="#8C4FF3" stop-opacity="0.064"/>
<stop offset="0.747" stop-color="#7716A8" stop-opacity="0.45"/>
<stop offset="0.975" stop-color="#6E008B" stop-opacity="0.6"/>
</radialGradient>
<radialGradient id="paint6_radial_3_177" cx="0" cy="0" r="1" gradientUnits="userSpaceOnUse" gradientTransform="translate(37.6853 11.9674) scale(23.5962 22.8481)">
<stop stop-color="#FFE226"/>
<stop offset="0.121" stop-color="#FFDB27"/>
<stop offset="0.295" stop-color="#FFC82A"/>
<stop offset="0.502" stop-color="#FFA930"/>
<stop offset="0.732" stop-color="#FF7E37"/>
<stop offset="0.792" stop-color="#FF7139"/>
</radialGradient>
<radialGradient id="paint7_radial_3_177" cx="0" cy="0" r="1" gradientUnits="userSpaceOnUse" gradientTransform="translate(56.4395 -2.89049) scale(100.676 97.4842)">
<stop offset="0.113" stop-color="#FFF44F"/>
<stop offset="0.456" stop-color="#FF980E"/>
<stop offset="0.622" stop-color="#FF5634"/>
<stop offset="0.716" stop-color="#FF3647"/>
<stop offset="0.904" stop-color="#E31587"/>
</radialGradient>
<radialGradient id="paint8_radial_3_177" cx="0" cy="0" r="1" gradientUnits="userSpaceOnUse" gradientTransform="translate(48.0717 2.5145) rotate(83.7803) scale(71.464 48.4014)">
<stop stop-color="#FFF44F"/>
<stop offset="0.06" stop-color="#FFE847"/>
<stop offset="0.168" stop-color="#FFC830"/>
<stop offset="0.304" stop-color="#FF980E"/>
<stop offset="0.356" stop-color="#FF8B16"/>
<stop offset="0.455" stop-color="#FF672A"/>
<stop offset="0.57" stop-color="#FF3647"/>
<stop offset="0.737" stop-color="#E31587"/>
</radialGradient>
<radialGradient id="paint9_radial_3_177" cx="0" cy="0" r="1" gradientUnits="userSpaceOnUse" gradientTransform="translate(37.6853 20.2218) scale(62.8437 60.8513)">
<stop offset="0.137" stop-color="#FFF44F"/>
<stop offset="0.48" stop-color="#FF980E"/>
<stop offset="0.592" stop-color="#FF5634"/>
<stop offset="0.655" stop-color="#FF3647"/>
<stop offset="0.904" stop-color="#E31587"/>
</radialGradient>
<radialGradient id="paint10_radial_3_177" cx="0" cy="0" r="1" gradientUnits="userSpaceOnUse" gradientTransform="translate(53.8821 23.5235) scale(68.7854 66.6046)">
<stop offset="0.094" stop-color="#FFF44F"/>
<stop offset="0.231" stop-color="#FFE141"/>
<stop offset="0.509" stop-color="#FFAF1E"/>
<stop offset="0.626" stop-color="#FF980E"/>
</radialGradient>
<linearGradient id="paint11_linear_3_177" x1="65.5697" y1="16.9662" x2="20.4089" y2="63.6142" gradientUnits="userSpaceOnUse">
<stop offset="0.167" stop-color="#FFF44F" stop-opacity="0.8"/>
<stop offset="0.266" stop-color="#FFF44F" stop-opacity="0.634"/>
<stop offset="0.489" stop-color="#FFF44F" stop-opacity="0.217"/>
<stop offset="0.6" stop-color="#FFF44F" stop-opacity="0"/>
</linearGradient>
</defs>
</svg>
