<svg width="255" height="80" viewBox="0 0 255 80" fill="none" xmlns="http://www.w3.org/2000/svg">
<rect x="0.5" y="0.5" width="254" height="79" rx="39.5" fill="#F6F8FA" fill-opacity="0.2"/>
<path d="M91.4609 33.8555L86.8203 48H83.082L89.4219 30.9375H91.8008L91.4609 33.8555ZM95.3164 48L90.6641 33.8555L90.2891 30.9375H92.6914L99.0664 48H95.3164ZM95.1055 41.6484V44.4023H86.0938V41.6484H95.1055ZM107.926 45.2344V30H111.324V48H108.266L107.926 45.2344ZM99.9102 41.8125V41.5664C99.9102 40.5977 100.02 39.7188 100.238 38.9297C100.457 38.1328 100.777 37.4492 101.199 36.8789C101.621 36.3086 102.141 35.8672 102.758 35.5547C103.375 35.2422 104.078 35.0859 104.867 35.0859C105.609 35.0859 106.258 35.2422 106.812 35.5547C107.375 35.8672 107.852 36.3125 108.242 36.8906C108.641 37.4609 108.961 38.1367 109.203 38.918C109.445 39.6914 109.621 40.5391 109.73 41.4609V42C109.621 42.8828 109.445 43.7031 109.203 44.4609C108.961 45.2188 108.641 45.8828 108.242 46.4531C107.852 47.0156 107.375 47.4531 106.812 47.7656C106.25 48.0781 105.594 48.2344 104.844 48.2344C104.055 48.2344 103.352 48.0742 102.734 47.7539C102.125 47.4336 101.609 46.9844 101.188 46.4062C100.773 45.8281 100.457 45.1484 100.238 44.3672C100.02 43.5859 99.9102 42.7344 99.9102 41.8125ZM103.285 41.5664V41.8125C103.285 42.3359 103.324 42.8242 103.402 43.2773C103.488 43.7305 103.625 44.1328 103.812 44.4844C104.008 44.8281 104.258 45.0977 104.562 45.293C104.875 45.4805 105.254 45.5742 105.699 45.5742C106.277 45.5742 106.754 45.4453 107.129 45.1875C107.504 44.9219 107.789 44.5586 107.984 44.0977C108.188 43.6367 108.305 43.1055 108.336 42.5039V40.9688C108.312 40.4766 108.242 40.0352 108.125 39.6445C108.016 39.2461 107.852 38.9062 107.633 38.625C107.422 38.3438 107.156 38.125 106.836 37.9688C106.523 37.8125 106.152 37.7344 105.723 37.7344C105.285 37.7344 104.91 37.8359 104.598 38.0391C104.285 38.2344 104.031 38.5039 103.836 38.8477C103.648 39.1914 103.508 39.5977 103.414 40.0664C103.328 40.5273 103.285 41.0273 103.285 41.5664ZM121.449 45.2344V30H124.848V48H121.789L121.449 45.2344ZM113.434 41.8125V41.5664C113.434 40.5977 113.543 39.7188 113.762 38.9297C113.98 38.1328 114.301 37.4492 114.723 36.8789C115.145 36.3086 115.664 35.8672 116.281 35.5547C116.898 35.2422 117.602 35.0859 118.391 35.0859C119.133 35.0859 119.781 35.2422 120.336 35.5547C120.898 35.8672 121.375 36.3125 121.766 36.8906C122.164 37.4609 122.484 38.1367 122.727 38.918C122.969 39.6914 123.145 40.5391 123.254 41.4609V42C123.145 42.8828 122.969 43.7031 122.727 44.4609C122.484 45.2188 122.164 45.8828 121.766 46.4531C121.375 47.0156 120.898 47.4531 120.336 47.7656C119.773 48.0781 119.117 48.2344 118.367 48.2344C117.578 48.2344 116.875 48.0742 116.258 47.7539C115.648 47.4336 115.133 46.9844 114.711 46.4062C114.297 45.8281 113.98 45.1484 113.762 44.3672C113.543 43.5859 113.434 42.7344 113.434 41.8125ZM116.809 41.5664V41.8125C116.809 42.3359 116.848 42.8242 116.926 43.2773C117.012 43.7305 117.148 44.1328 117.336 44.4844C117.531 44.8281 117.781 45.0977 118.086 45.293C118.398 45.4805 118.777 45.5742 119.223 45.5742C119.801 45.5742 120.277 45.4453 120.652 45.1875C121.027 44.9219 121.312 44.5586 121.508 44.0977C121.711 43.6367 121.828 43.1055 121.859 42.5039V40.9688C121.836 40.4766 121.766 40.0352 121.648 39.6445C121.539 39.2461 121.375 38.9062 121.156 38.625C120.945 38.3438 120.68 38.125 120.359 37.9688C120.047 37.8125 119.676 37.7344 119.246 37.7344C118.809 37.7344 118.434 37.8359 118.121 38.0391C117.809 38.2344 117.555 38.5039 117.359 38.8477C117.172 39.1914 117.031 39.5977 116.938 40.0664C116.852 40.5273 116.809 41.0273 116.809 41.5664ZM139.672 35.3203V37.7109H132.289V35.3203H139.672ZM134.117 32.1914H137.492V44.1797C137.492 44.5469 137.539 44.8281 137.633 45.0234C137.734 45.2188 137.883 45.3555 138.078 45.4336C138.273 45.5039 138.52 45.5391 138.816 45.5391C139.027 45.5391 139.215 45.5312 139.379 45.5156C139.551 45.4922 139.695 45.4688 139.812 45.4453L139.824 47.9297C139.535 48.0234 139.223 48.0977 138.887 48.1523C138.551 48.207 138.18 48.2344 137.773 48.2344C137.031 48.2344 136.383 48.1133 135.828 47.8711C135.281 47.6211 134.859 47.2227 134.562 46.6758C134.266 46.1289 134.117 45.4102 134.117 44.5195V32.1914ZM140.75 41.7891V41.543C140.75 40.6133 140.883 39.7578 141.148 38.9766C141.414 38.1875 141.801 37.5039 142.309 36.9258C142.816 36.3477 143.441 35.8984 144.184 35.5781C144.926 35.25 145.777 35.0859 146.738 35.0859C147.699 35.0859 148.555 35.25 149.305 35.5781C150.055 35.8984 150.684 36.3477 151.191 36.9258C151.707 37.5039 152.098 38.1875 152.363 38.9766C152.629 39.7578 152.762 40.6133 152.762 41.543V41.7891C152.762 42.7109 152.629 43.5664 152.363 44.3555C152.098 45.1367 151.707 45.8203 151.191 46.4062C150.684 46.9844 150.059 47.4336 149.316 47.7539C148.574 48.0742 147.723 48.2344 146.762 48.2344C145.801 48.2344 144.945 48.0742 144.195 47.7539C143.453 47.4336 142.824 46.9844 142.309 46.4062C141.801 45.8203 141.414 45.1367 141.148 44.3555C140.883 43.5664 140.75 42.7109 140.75 41.7891ZM144.125 41.543V41.7891C144.125 42.3203 144.172 42.8164 144.266 43.2773C144.359 43.7383 144.508 44.1445 144.711 44.4961C144.922 44.8398 145.195 45.1094 145.531 45.3047C145.867 45.5 146.277 45.5977 146.762 45.5977C147.23 45.5977 147.633 45.5 147.969 45.3047C148.305 45.1094 148.574 44.8398 148.777 44.4961C148.98 44.1445 149.129 43.7383 149.223 43.2773C149.324 42.8164 149.375 42.3203 149.375 41.7891V41.543C149.375 41.0273 149.324 40.543 149.223 40.0898C149.129 39.6289 148.977 39.2227 148.766 38.8711C148.562 38.5117 148.293 38.2305 147.957 38.0273C147.621 37.8242 147.215 37.7227 146.738 37.7227C146.262 37.7227 145.855 37.8242 145.52 38.0273C145.191 38.2305 144.922 38.5117 144.711 38.8711C144.508 39.2227 144.359 39.6289 144.266 40.0898C144.172 40.543 144.125 41.0273 144.125 41.543ZM164.539 30.9375V48H161.023V30.9375H164.539ZM171.336 38.2266V40.9688H163.578V38.2266H171.336ZM172.156 30.9375V33.6914H163.578V30.9375H172.156ZM177.547 35.3203V48H174.16V35.3203H177.547ZM173.949 32.0156C173.949 31.5234 174.121 31.1172 174.465 30.7969C174.809 30.4766 175.27 30.3164 175.848 30.3164C176.418 30.3164 176.875 30.4766 177.219 30.7969C177.57 31.1172 177.746 31.5234 177.746 32.0156C177.746 32.5078 177.57 32.9141 177.219 33.2344C176.875 33.5547 176.418 33.7148 175.848 33.7148C175.27 33.7148 174.809 33.5547 174.465 33.2344C174.121 32.9141 173.949 32.5078 173.949 32.0156ZM183.711 38.0859V48H180.336V35.3203H183.512L183.711 38.0859ZM187.531 35.2383L187.473 38.3672C187.309 38.3438 187.109 38.3242 186.875 38.3086C186.648 38.2852 186.441 38.2734 186.254 38.2734C185.777 38.2734 185.363 38.3359 185.012 38.4609C184.668 38.5781 184.379 38.7539 184.145 38.9883C183.918 39.2227 183.746 39.5078 183.629 39.8438C183.52 40.1797 183.457 40.5625 183.441 40.9922L182.762 40.7812C182.762 39.9609 182.844 39.207 183.008 38.5195C183.172 37.8242 183.41 37.2188 183.723 36.7031C184.043 36.1875 184.434 35.7891 184.895 35.5078C185.355 35.2266 185.883 35.0859 186.477 35.0859C186.664 35.0859 186.855 35.1016 187.051 35.1328C187.246 35.1562 187.406 35.1914 187.531 35.2383ZM194.727 48.2344C193.742 48.2344 192.859 48.0781 192.078 47.7656C191.297 47.4453 190.633 47.0039 190.086 46.4414C189.547 45.8789 189.133 45.2266 188.844 44.4844C188.555 43.7344 188.41 42.9375 188.41 42.0938V41.625C188.41 40.6641 188.547 39.7852 188.82 38.9883C189.094 38.1914 189.484 37.5 189.992 36.9141C190.508 36.3281 191.133 35.8789 191.867 35.5664C192.602 35.2461 193.43 35.0859 194.352 35.0859C195.25 35.0859 196.047 35.2344 196.742 35.5312C197.438 35.8281 198.02 36.25 198.488 36.7969C198.965 37.3438 199.324 38 199.566 38.7656C199.809 39.5234 199.93 40.3672 199.93 41.2969V42.7031H189.852V40.4531H196.613V40.1953C196.613 39.7266 196.527 39.3086 196.355 38.9414C196.191 38.5664 195.941 38.2695 195.605 38.0508C195.27 37.832 194.84 37.7227 194.316 37.7227C193.871 37.7227 193.488 37.8203 193.168 38.0156C192.848 38.2109 192.586 38.4844 192.383 38.8359C192.188 39.1875 192.039 39.6016 191.938 40.0781C191.844 40.5469 191.797 41.0625 191.797 41.625V42.0938C191.797 42.6016 191.867 43.0703 192.008 43.5C192.156 43.9297 192.363 44.3008 192.629 44.6133C192.902 44.9258 193.23 45.168 193.613 45.3398C194.004 45.5117 194.445 45.5977 194.938 45.5977C195.547 45.5977 196.113 45.4805 196.637 45.2461C197.168 45.0039 197.625 44.6406 198.008 44.1562L199.648 45.9375C199.383 46.3203 199.02 46.6875 198.559 47.0391C198.105 47.3906 197.559 47.6797 196.918 47.9062C196.277 48.125 195.547 48.2344 194.727 48.2344ZM206.152 48H202.754V34.1953C202.754 33.2344 202.941 32.4258 203.316 31.7695C203.699 31.1055 204.234 30.6055 204.922 30.2695C205.617 29.9258 206.441 29.7539 207.395 29.7539C207.707 29.7539 208.008 29.7773 208.297 29.8242C208.586 29.8633 208.867 29.9141 209.141 29.9766L209.105 32.5195C208.957 32.4805 208.801 32.4531 208.637 32.4375C208.473 32.4219 208.281 32.4141 208.062 32.4141C207.656 32.4141 207.309 32.4844 207.02 32.625C206.738 32.7578 206.523 32.957 206.375 33.2227C206.227 33.4883 206.152 33.8125 206.152 34.1953V48ZM208.684 35.3203V37.7109H200.867V35.3203H208.684ZM209.914 41.7891V41.543C209.914 40.6133 210.047 39.7578 210.312 38.9766C210.578 38.1875 210.965 37.5039 211.473 36.9258C211.98 36.3477 212.605 35.8984 213.348 35.5781C214.09 35.25 214.941 35.0859 215.902 35.0859C216.863 35.0859 217.719 35.25 218.469 35.5781C219.219 35.8984 219.848 36.3477 220.355 36.9258C220.871 37.5039 221.262 38.1875 221.527 38.9766C221.793 39.7578 221.926 40.6133 221.926 41.543V41.7891C221.926 42.7109 221.793 43.5664 221.527 44.3555C221.262 45.1367 220.871 45.8203 220.355 46.4062C219.848 46.9844 219.223 47.4336 218.48 47.7539C217.738 48.0742 216.887 48.2344 215.926 48.2344C214.965 48.2344 214.109 48.0742 213.359 47.7539C212.617 47.4336 211.988 46.9844 211.473 46.4062C210.965 45.8203 210.578 45.1367 210.312 44.3555C210.047 43.5664 209.914 42.7109 209.914 41.7891ZM213.289 41.543V41.7891C213.289 42.3203 213.336 42.8164 213.43 43.2773C213.523 43.7383 213.672 44.1445 213.875 44.4961C214.086 44.8398 214.359 45.1094 214.695 45.3047C215.031 45.5 215.441 45.5977 215.926 45.5977C216.395 45.5977 216.797 45.5 217.133 45.3047C217.469 45.1094 217.738 44.8398 217.941 44.4961C218.145 44.1445 218.293 43.7383 218.387 43.2773C218.488 42.8164 218.539 42.3203 218.539 41.7891V41.543C218.539 41.0273 218.488 40.543 218.387 40.0898C218.293 39.6289 218.141 39.2227 217.93 38.8711C217.727 38.5117 217.457 38.2305 217.121 38.0273C216.785 37.8242 216.379 37.7227 215.902 37.7227C215.426 37.7227 215.02 37.8242 214.684 38.0273C214.355 38.2305 214.086 38.5117 213.875 38.8711C213.672 39.2227 213.523 39.6289 213.43 40.0898C213.336 40.543 213.289 41.0273 213.289 41.543ZM226.461 35.3203L228.559 39.1758L230.715 35.3203H234.312L230.727 41.5195L234.477 48H230.867L228.582 43.9219L226.297 48H222.688L226.438 41.5195L222.852 35.3203H226.461Z" fill="#1E1E1E"/>
<path d="M71.535 28.8329C70.056 25.3868 67.0557 21.6661 64.7063 20.4899C66.3817 23.6314 67.5445 27.0052 68.1536 30.4912L68.1597 30.5465C64.311 21.2596 57.7871 17.5091 52.4558 9.35328C52.1861 8.94081 51.9165 8.5275 51.6539 8.09121C51.5037 7.84203 51.3834 7.61751 51.2789 7.41085C51.0578 6.9963 50.8874 6.55819 50.7712 6.10541C50.7714 6.08452 50.7636 6.0643 50.7493 6.04861C50.7351 6.03293 50.7153 6.02287 50.6939 6.02037C50.6729 6.01479 50.6508 6.01479 50.6298 6.02037C50.6254 6.02037 50.6184 6.02802 50.6131 6.02972C50.6078 6.03142 50.5964 6.03908 50.5885 6.04248L50.6017 6.02037C42.0515 10.8679 39.1487 19.8402 38.8852 24.3306C35.4695 24.5573 32.2036 25.7757 29.5138 27.8268C29.2332 27.5967 28.9401 27.3815 28.6355 27.1821C27.8599 24.5533 27.8269 21.7712 28.5397 19.1258C25.3997 20.5986 22.6096 22.6866 20.3461 25.2576H20.3303C18.9812 23.6017 19.0761 18.1418 19.1534 17.0014C18.7543 17.1567 18.3733 17.3525 18.0169 17.5857C16.8259 18.4087 15.7126 19.3322 14.6899 20.3454C13.5244 21.4895 12.46 22.7261 11.5078 24.0423V24.0474V24.0414C9.31955 27.0449 7.76731 30.4383 6.94066 34.0257L6.89499 34.2434C6.83087 34.5334 6.59988 35.986 6.56035 36.3015C6.56035 36.3262 6.55508 36.3492 6.55245 36.3738C6.25449 37.8735 6.06985 39.3921 6 40.9178V41.0879C6.01504 49.336 9.22299 57.279 14.9906 63.3488C20.7581 69.4187 28.6662 73.1743 37.1537 73.8742C45.6412 74.5742 54.0913 72.1677 60.8359 67.1298C67.5806 62.0918 72.1296 54.7886 73.585 46.6617C73.6421 46.2365 73.6886 45.8155 73.7396 45.386C74.4407 39.7747 73.6817 34.0826 71.5315 28.8278L71.535 28.8329ZM32.3015 54.6356C32.4605 54.7095 32.6098 54.7895 32.7731 54.8601L32.7969 54.8745C32.6317 54.798 32.4666 54.7183 32.3015 54.6356ZM68.1606 30.5559V30.5244L68.1668 30.5593L68.1606 30.5559Z" fill="url(#paint0_linear_3_192)"/>
<path d="M71.535 28.8328C70.0559 25.3868 67.0557 21.6661 64.7062 20.4899C66.3816 23.6314 67.5445 27.0051 68.1535 30.4912V30.5227L68.1597 30.5576C70.7839 37.8281 70.4044 45.7994 67.1005 52.8054C63.1991 60.911 53.7591 69.2191 38.9774 68.8108C23.0099 68.3729 8.9396 56.896 6.31349 41.8686C5.83482 39.4983 6.31349 38.2967 6.55414 36.3704C6.22588 37.8667 6.04269 39.3893 6.00697 40.9186V41.0887C6.02201 49.3368 9.22995 57.2798 14.9975 63.3496C20.7651 69.4195 28.6732 73.1751 37.1607 73.875C45.6482 74.575 54.0983 72.1685 60.8429 67.1306C67.5875 62.0927 72.1365 54.7894 73.592 46.6625C73.649 46.2373 73.6956 45.8163 73.7465 45.3869C74.4477 39.7755 73.6887 34.0835 71.5385 28.8286L71.535 28.8328Z" fill="url(#paint1_radial_3_192)"/>
<path d="M71.535 28.8328C70.0559 25.3868 67.0557 21.6661 64.7062 20.4899C66.3816 23.6314 67.5445 27.0051 68.1535 30.4912V30.5227L68.1597 30.5576C70.7839 37.8281 70.4044 45.7994 67.1005 52.8054C63.1991 60.911 53.7591 69.2191 38.9774 68.8108C23.0099 68.3729 8.9396 56.896 6.31349 41.8686C5.83482 39.4983 6.31349 38.2967 6.55414 36.3704C6.22588 37.8667 6.04269 39.3893 6.00697 40.9186V41.0887C6.02201 49.3368 9.22995 57.2798 14.9975 63.3496C20.7651 69.4195 28.6732 73.1751 37.1607 73.875C45.6482 74.575 54.0983 72.1685 60.8429 67.1306C67.5875 62.0927 72.1365 54.7894 73.592 46.6625C73.649 46.2373 73.6956 45.8163 73.7465 45.3869C74.4477 39.7755 73.6887 34.0835 71.5385 28.8286L71.535 28.8328Z" fill="url(#paint2_radial_3_192)"/>
<path d="M54.9878 32.7024C55.0616 32.7526 55.1301 32.8027 55.1995 32.8529C54.3445 31.3848 53.28 30.0406 52.0377 28.86C41.4542 18.6121 49.2649 6.64625 50.5814 6.03393L50.5946 6.01522C42.0444 10.8628 39.1416 19.835 38.8781 24.3254C39.2751 24.2991 39.6686 24.2668 40.0744 24.2668C43.1079 24.2724 46.0857 25.0558 48.7052 26.5372C51.3247 28.0185 53.4923 30.1451 54.9878 32.7007V32.7024Z" fill="url(#paint3_radial_3_192)"/>
<path d="M40.0919 34.752C40.0357 35.5718 37.0442 38.3996 35.9982 38.3996C26.3193 38.3996 24.7472 44.0695 24.7472 44.0695C25.1758 48.844 28.6117 52.7781 32.7652 54.8533C32.9549 54.9485 33.1472 55.0344 33.3396 55.1186C33.6727 55.2615 34.0059 55.3936 34.3391 55.5149C35.7645 56.0033 37.2575 56.2823 38.7683 56.3424C55.737 57.1129 59.0219 36.697 46.7775 30.7693C49.6659 30.4054 52.5908 31.0931 54.9852 32.699C53.4897 30.1434 51.322 28.0169 48.7026 26.5355C46.0831 25.0541 43.1052 24.2708 40.0717 24.2651C39.6677 24.2651 39.2725 24.2974 38.8755 24.3238C35.4597 24.5505 32.1939 25.7689 29.5041 27.82C30.0231 28.2452 30.6089 28.8133 31.843 29.9912C34.1529 32.1947 40.077 34.4773 40.0902 34.7452L40.0919 34.752Z" fill="url(#paint4_radial_3_192)"/>
<path d="M40.0919 34.752C40.0357 35.5718 37.0442 38.3996 35.9982 38.3996C26.3193 38.3996 24.7472 44.0695 24.7472 44.0695C25.1758 48.844 28.6117 52.7781 32.7652 54.8533C32.9549 54.9485 33.1472 55.0344 33.3396 55.1186C33.6727 55.2615 34.0059 55.3936 34.3391 55.5149C35.7645 56.0033 37.2575 56.2823 38.7683 56.3424C55.737 57.1129 59.0219 36.697 46.7775 30.7693C49.6659 30.4054 52.5908 31.0931 54.9852 32.699C53.4897 30.1434 51.322 28.0169 48.7026 26.5355C46.0831 25.0541 43.1052 24.2708 40.0717 24.2651C39.6677 24.2651 39.2725 24.2974 38.8755 24.3238C35.4597 24.5505 32.1939 25.7689 29.5041 27.82C30.0231 28.2452 30.6089 28.8133 31.843 29.9912C34.1529 32.1947 40.077 34.4773 40.0902 34.7452L40.0919 34.752Z" fill="url(#paint5_radial_3_192)"/>
<path d="M27.9187 26.7322C28.1945 26.9023 28.422 27.0503 28.6214 27.1838C27.8458 24.555 27.8128 21.7729 28.5256 19.1275C25.3856 20.6003 22.5955 22.6883 20.332 25.2593C20.498 25.255 25.4358 25.1691 27.9187 26.7322Z" fill="url(#paint6_radial_3_192)"/>
<path d="M6.30735 41.8702C8.93434 56.8977 23.0038 68.3788 38.9712 68.8125C53.753 69.2173 63.1947 60.9084 67.0943 52.807C70.3982 45.8011 70.7777 37.8298 68.1535 30.5592V30.5278C68.1535 30.5031 68.1483 30.4886 68.1535 30.4963L68.1597 30.5516C69.3674 38.1861 65.357 45.5791 59.0869 50.5882L59.0676 50.6307C46.8504 60.2663 35.1603 56.4427 32.7977 54.883C32.6326 54.8064 32.4674 54.7268 32.3023 54.644C25.1802 51.3477 22.237 45.0679 22.8694 39.6761C21.1788 39.7002 19.5172 39.2491 18.086 38.3774C16.6548 37.5057 15.5153 36.2508 14.8058 34.7647C16.6755 33.6557 18.8073 33.0287 20.9982 32.9436C23.1891 32.8584 25.366 33.3179 27.3215 34.2783C31.3522 36.0498 35.9388 36.2244 40.1007 34.7647C40.0876 34.4968 34.1634 32.2134 31.8535 30.0107C30.6195 28.8328 30.0337 28.2656 29.5146 27.8395C29.2341 27.6094 28.9409 27.3942 28.6363 27.1948C28.4343 27.0613 28.2068 26.9168 27.9337 26.7433C25.4507 25.1801 20.5129 25.266 20.3496 25.2703H20.3338C18.9847 23.6145 19.0796 18.1546 19.1568 17.0141C18.7577 17.1694 18.3768 17.3653 18.0203 17.5984C16.8294 18.4214 15.716 19.3449 14.6933 20.3581C13.5237 21.499 12.4549 22.7328 11.4981 24.0465C9.30984 27.0499 7.7576 30.4425 6.93094 34.0299C6.91426 34.0971 5.70484 39.2168 6.30121 41.8719L6.30735 41.8702Z" fill="url(#paint7_radial_3_192)"/>
<path d="M52.0368 28.8584C53.2795 30.0402 54.3439 31.3858 55.1987 32.8555C55.3857 32.9924 55.5605 33.1285 55.7089 33.2603C63.4265 40.1489 59.3829 49.8866 59.0816 50.5755C65.3509 45.574 69.3577 38.1759 68.1544 30.5388C64.304 21.2434 57.7729 17.4929 52.4505 9.3371C52.1808 8.92463 51.9112 8.51131 51.6486 8.07503C51.4984 7.82585 51.3781 7.60133 51.2735 7.39467C51.0525 6.98012 50.8821 6.54201 50.7659 6.08922C50.766 6.06833 50.7582 6.04811 50.744 6.03243C50.7297 6.01674 50.71 6.00669 50.6886 6.00418C50.6676 5.99861 50.6455 5.99861 50.6245 6.00418C50.6201 6.00418 50.6131 6.01183 50.6078 6.01353C50.6025 6.01524 50.5911 6.02289 50.5832 6.02629C49.2666 6.63096 41.4577 18.6045 52.0412 28.8439L52.0368 28.8584Z" fill="url(#paint8_radial_3_192)"/>
<path d="M55.708 33.2637C55.5596 33.1319 55.3848 32.9958 55.1978 32.8589C55.1284 32.8087 55.0599 32.7585 54.9861 32.7084C52.5917 31.1025 49.6667 30.4148 46.7784 30.7787C59.0219 36.7063 55.737 57.1172 38.7692 56.3518C37.2584 56.2916 35.7654 56.0127 34.34 55.5243C34.0068 55.4035 33.6736 55.2714 33.3405 55.128C33.1481 55.0429 32.9558 54.9579 32.766 54.8626L32.7898 54.8771C35.1559 56.4411 46.8425 60.2621 59.0596 50.6248L59.079 50.5823C59.3837 49.8934 63.4274 40.1558 55.7063 33.2671L55.708 33.2637Z" fill="url(#paint9_radial_3_192)"/>
<path d="M24.7481 44.0644C24.7481 44.0644 26.3193 38.3945 35.999 38.3945C37.0451 38.3945 40.0392 35.5667 40.0928 34.7469C35.9308 36.2066 31.3443 36.032 27.3136 34.2604C25.3581 33.3001 23.1812 32.8406 20.9903 32.9257C18.7994 33.0109 16.6675 33.6379 14.7978 34.7469C15.5074 36.233 16.6468 37.4879 18.078 38.3596C19.5093 39.2313 21.1708 39.6824 22.8615 39.6582C22.2309 45.0476 25.1731 51.3264 32.2944 54.6262C32.4534 54.7002 32.6027 54.7801 32.766 54.8507C28.609 52.7714 25.1767 48.8389 24.7481 44.067V44.0644Z" fill="url(#paint10_radial_3_192)"/>
<path d="M71.5352 28.8329C70.0562 25.3868 67.0559 21.6661 64.7065 20.4899C66.3819 23.6314 67.5447 27.0052 68.1538 30.4912L68.1599 30.5465C64.3112 21.2596 57.7872 17.5091 52.456 9.35328C52.1863 8.94081 51.9167 8.5275 51.6541 8.09121C51.5039 7.84203 51.3836 7.61751 51.2791 7.41085C51.058 6.9963 50.8876 6.55819 50.7714 6.10541C50.7716 6.08452 50.7638 6.0643 50.7495 6.04861C50.7353 6.03293 50.7155 6.02287 50.6941 6.02037C50.6731 6.01479 50.651 6.01479 50.63 6.02037C50.6256 6.02037 50.6186 6.02802 50.6133 6.02972C50.608 6.03142 50.5966 6.03908 50.5887 6.04248L50.6019 6.02037C42.0517 10.8679 39.1489 19.8402 38.8854 24.3306C39.2824 24.3042 39.6759 24.2719 40.0816 24.2719C43.1152 24.2776 46.093 25.0609 48.7125 26.5423C51.332 28.0237 53.4996 30.1503 54.9951 32.7058C52.6007 31.0999 49.6758 30.4122 46.7875 30.7762C59.0309 36.7038 55.7461 57.1146 38.7783 56.3492C37.2675 56.2891 35.7745 56.0102 34.349 55.5217C34.0158 55.401 33.6827 55.2689 33.3495 55.1254C33.1572 55.0404 32.9648 54.9553 32.7751 54.8601L32.7988 54.8745C32.6337 54.798 32.4686 54.7183 32.3034 54.6356C32.4624 54.7095 32.6117 54.7895 32.7751 54.8601C28.6181 52.7799 25.1857 48.8474 24.7571 44.0764C24.7571 44.0764 26.3284 38.4064 36.0081 38.4064C37.0542 38.4064 40.0483 35.5786 40.1019 34.7588C40.0887 34.4909 34.1646 32.2075 31.8546 30.0048C30.6206 28.8269 30.0348 28.2597 29.5157 27.8336C29.2352 27.6035 28.942 27.3883 28.6374 27.1889C27.8619 24.5601 27.8288 21.778 28.5417 19.1326C25.4017 20.6054 22.6116 22.6934 20.3481 25.2644H20.3323C18.9832 23.6085 19.078 18.1487 19.1553 17.0082C18.7562 17.1635 18.3753 17.3594 18.0188 17.5925C16.8279 18.4155 15.7145 19.339 14.6918 20.3522C13.5264 21.4963 12.462 22.7329 11.5098 24.0491C9.32151 27.0526 7.76926 30.4451 6.94261 34.0325L6.89694 34.2502C6.83282 34.5402 6.54562 36.0132 6.50434 36.3296C6.24164 37.8501 6.07387 39.3845 6.00195 40.9246V41.0947C6.017 49.3428 9.22494 57.2858 14.9925 63.3556C20.7601 69.4255 28.6682 73.1811 37.1557 73.881C45.6432 74.581 54.0933 72.1745 60.8379 67.1366C67.5825 62.0987 72.1315 54.7954 73.5869 46.6685C73.644 46.2433 73.6906 45.8223 73.7415 45.3929C74.4427 39.7815 73.6836 34.0894 71.5335 28.8346L71.5352 28.8329Z" fill="url(#paint11_linear_3_192)"/>
<rect x="0.5" y="0.5" width="254" height="79" rx="39.5" stroke="#D0D7DE"/>
<defs>
<linearGradient id="paint0_linear_3_192" x1="67.0294" y1="16.5489" x2="12.2741" y2="71.1082" gradientUnits="userSpaceOnUse">
<stop offset="0.048" stop-color="#FFF44F"/>
<stop offset="0.111" stop-color="#FFE847"/>
<stop offset="0.225" stop-color="#FFC830"/>
<stop offset="0.368" stop-color="#FF980E"/>
<stop offset="0.401" stop-color="#FF8B16"/>
<stop offset="0.462" stop-color="#FF672A"/>
<stop offset="0.534" stop-color="#FF3647"/>
<stop offset="0.705" stop-color="#E31587"/>
</linearGradient>
<radialGradient id="paint1_radial_3_192" cx="0" cy="0" r="1" gradientUnits="userSpaceOnUse" gradientTransform="translate(64.8424 13.6693) scale(70.9664 68.7165)">
<stop offset="0.129" stop-color="#FFBD4F"/>
<stop offset="0.186" stop-color="#FFAC31"/>
<stop offset="0.247" stop-color="#FF9D17"/>
<stop offset="0.283" stop-color="#FF980E"/>
<stop offset="0.403" stop-color="#FF563B"/>
<stop offset="0.467" stop-color="#FF3750"/>
<stop offset="0.71" stop-color="#F5156C"/>
<stop offset="0.782" stop-color="#EB0878"/>
<stop offset="0.86" stop-color="#E50080"/>
</radialGradient>
<radialGradient id="paint2_radial_3_192" cx="0" cy="0" r="1" gradientUnits="userSpaceOnUse" gradientTransform="translate(38.4934 41.7342) scale(70.9664 68.7165)">
<stop offset="0.3" stop-color="#960E18"/>
<stop offset="0.351" stop-color="#B11927" stop-opacity="0.74"/>
<stop offset="0.435" stop-color="#DB293D" stop-opacity="0.343"/>
<stop offset="0.497" stop-color="#F5334B" stop-opacity="0.094"/>
<stop offset="0.53" stop-color="#FF3750" stop-opacity="0"/>
</radialGradient>
<radialGradient id="paint3_radial_3_192" cx="0" cy="0" r="1" gradientUnits="userSpaceOnUse" gradientTransform="translate(47.2764 -1.63885) scale(51.4067 49.7769)">
<stop offset="0.132" stop-color="#FFF44F"/>
<stop offset="0.252" stop-color="#FFDC3E"/>
<stop offset="0.506" stop-color="#FF9D12"/>
<stop offset="0.526" stop-color="#FF980E"/>
</radialGradient>
<radialGradient id="paint4_radial_3_192" cx="0" cy="0" r="1" gradientUnits="userSpaceOnUse" gradientTransform="translate(30.5887 59.5937) scale(33.7881 32.7169)">
<stop offset="0.353" stop-color="#3A8EE6"/>
<stop offset="0.472" stop-color="#5C79F0"/>
<stop offset="0.669" stop-color="#9059FF"/>
<stop offset="1" stop-color="#C139E6"/>
</radialGradient>
<radialGradient id="paint5_radial_3_192" cx="0" cy="0" r="1" gradientUnits="userSpaceOnUse" gradientTransform="translate(41.9258 35.8355) rotate(-13.1759) scale(17.8864 20.3468)">
<stop offset="0.206" stop-color="#9059FF" stop-opacity="0"/>
<stop offset="0.278" stop-color="#8C4FF3" stop-opacity="0.064"/>
<stop offset="0.747" stop-color="#7716A8" stop-opacity="0.45"/>
<stop offset="0.975" stop-color="#6E008B" stop-opacity="0.6"/>
</radialGradient>
<radialGradient id="paint6_radial_3_192" cx="0" cy="0" r="1" gradientUnits="userSpaceOnUse" gradientTransform="translate(37.6151 11.118) scale(24.3113 23.5405)">
<stop stop-color="#FFE226"/>
<stop offset="0.121" stop-color="#FFDB27"/>
<stop offset="0.295" stop-color="#FFC82A"/>
<stop offset="0.502" stop-color="#FFA930"/>
<stop offset="0.732" stop-color="#FF7E37"/>
<stop offset="0.792" stop-color="#FF7139"/>
</radialGradient>
<radialGradient id="paint7_radial_3_192" cx="0" cy="0" r="1" gradientUnits="userSpaceOnUse" gradientTransform="translate(56.9377 -4.1902) scale(103.727 100.438)">
<stop offset="0.113" stop-color="#FFF44F"/>
<stop offset="0.456" stop-color="#FF980E"/>
<stop offset="0.622" stop-color="#FF5634"/>
<stop offset="0.716" stop-color="#FF3647"/>
<stop offset="0.904" stop-color="#E31587"/>
</radialGradient>
<radialGradient id="paint8_radial_3_192" cx="0" cy="0" r="1" gradientUnits="userSpaceOnUse" gradientTransform="translate(48.3163 1.37858) rotate(83.7803) scale(73.6296 49.8681)">
<stop stop-color="#FFF44F"/>
<stop offset="0.06" stop-color="#FFE847"/>
<stop offset="0.168" stop-color="#FFC830"/>
<stop offset="0.304" stop-color="#FF980E"/>
<stop offset="0.356" stop-color="#FF8B16"/>
<stop offset="0.455" stop-color="#FF672A"/>
<stop offset="0.57" stop-color="#FF3647"/>
<stop offset="0.737" stop-color="#E31587"/>
</radialGradient>
<radialGradient id="paint9_radial_3_192" cx="0" cy="0" r="1" gradientUnits="userSpaceOnUse" gradientTransform="translate(37.6151 19.6225) scale(64.7481 62.6953)">
<stop offset="0.137" stop-color="#FFF44F"/>
<stop offset="0.48" stop-color="#FF980E"/>
<stop offset="0.592" stop-color="#FF5634"/>
<stop offset="0.655" stop-color="#FF3647"/>
<stop offset="0.904" stop-color="#E31587"/>
</radialGradient>
<radialGradient id="paint10_radial_3_192" cx="0" cy="0" r="1" gradientUnits="userSpaceOnUse" gradientTransform="translate(54.3028 23.0243) scale(70.8698 68.6229)">
<stop offset="0.094" stop-color="#FFF44F"/>
<stop offset="0.231" stop-color="#FFE141"/>
<stop offset="0.509" stop-color="#FFAF1E"/>
<stop offset="0.626" stop-color="#FF980E"/>
</radialGradient>
<linearGradient id="paint11_linear_3_192" x1="66.3445" y1="16.2682" x2="19.8152" y2="64.3298" gradientUnits="userSpaceOnUse">
<stop offset="0.167" stop-color="#FFF44F" stop-opacity="0.8"/>
<stop offset="0.266" stop-color="#FFF44F" stop-opacity="0.634"/>
<stop offset="0.489" stop-color="#FFF44F" stop-opacity="0.217"/>
<stop offset="0.6" stop-color="#FFF44F" stop-opacity="0"/>
</linearGradient>
</defs>
</svg>
